<?xml version="1.0" standalone="no"?>
  <!DOCTYPE svg PUBLIC "-//W3C//DTD SVG 1.1//EN" "http://www.w3.org/Graphics/SVG/1.1/DTD/svg11.dtd" >
  <svg>
  <metadata>
  Created by font-carrier
  </metadata>
  <defs>
  <font id="Montserrat-BlackItalic" horiz-adv-x="1773" vert-adv-y="1773" >
    <font-face
      
      font-family="Montserrat Black"
      
      font-weight="400"
      
      font-stretch="normal"
      
      units-per-em="1000"
      
      ascent="968"
      
      descent="-251"
      
    />
      <missing-glyph />

      

      
      <glyph glyph-name="uni41" unicode="&#x41;" d="M512 122L245 122L175 0L-74 0L372 700L604 700L770 0L535 0L512 122M479 292L445 471L342 292L479 292Z"  horiz-adv-x="806" vert-adv-y="1000"  />

      
      <glyph glyph-name="unic1" unicode="&#xc1;" d="M512 122L245 122L175 0L-74 0L372 700L604 700L770 0L535 0L512 122M479 292L445 471L342 292L479 292M541 917L762 917L547 757L391 757L541 917Z"  horiz-adv-x="806" vert-adv-y="1000"  />

      
      <glyph glyph-name="uni0102" unicode="&#x0102;" d="M512 122L245 122L175 0L-74 0L372 700L604 700L770 0L535 0L512 122M479 292L445 471L342 292L479 292M508 747Q425 747 373 788Q321 829 321 898Q321 911 322 917L453 917Q452 889 470.50 872.50Q489 856 521 856Q553 856 573.50 872.50Q594 889 601 917L740 917Q724 838 662 792.50Q600 747 508 747Z"  horiz-adv-x="806" vert-adv-y="1000"  />

      
      <glyph glyph-name="uni1EAE" unicode="&#x1EAE;" d="M512 122L245 122L175 0L-74 0L372 700L604 700L770 0L535 0L512 122M479 292L445 471L342 292L479 292M512 747Q419 747 365.50 785Q312 823 316 887L439 887Q440 868 462 856.50Q484 845 519 845Q553 845 575.50 856.50Q598 868 603 887L734 887Q721 823 660.50 785Q600 747 512 747M542 1055L761 1055L580 925L426 925L542 1055Z"  horiz-adv-x="806" vert-adv-y="1000"  />

      
      <glyph glyph-name="uni1EB6" unicode="&#x1EB6;" d="M512 122L245 122L175 0L-74 0L372 700L604 700L770 0L535 0L512 122M479 292L445 471L342 292L479 292M313-226Q276-226 252.50-203.50Q229-181 229-146Q229-105 258.50-77.50Q288-50 327-50Q363-50 387-72Q411-94 411-128Q411-173 383-199.50Q355-226 313-226M508 747Q425 747 373 788Q321 829 321 898Q321 911 322 917L453 917Q452 889 470.50 872.50Q489 856 521 856Q553 856 573.50 872.50Q594 889 601 917L740 917Q724 838 662 792.50Q600 747 508 747Z"  horiz-adv-x="806" vert-adv-y="1000"  />

      
      <glyph glyph-name="uni1EB0" unicode="&#x1EB0;" d="M512 122L245 122L175 0L-74 0L372 700L604 700L770 0L535 0L512 122M479 292L445 471L342 292L479 292M512 747Q419 747 365.50 785Q312 823 316 887L439 887Q440 868 462 856.50Q484 845 519 845Q553 845 575.50 856.50Q598 868 603 887L734 887Q721 823 660.50 785Q600 747 512 747M347 1055L562 1055L638 925L488 925L347 1055Z"  horiz-adv-x="806" vert-adv-y="1000"  />

      
      <glyph glyph-name="uni1EB2" unicode="&#x1EB2;" d="M512 122L245 122L175 0L-74 0L372 700L604 700L770 0L535 0L512 122M479 292L445 471L342 292L479 292M512 747Q419 747 365.50 785Q312 823 316 887L439 887Q440 868 462 856.50Q484 845 519 845Q553 845 575.50 856.50Q598 868 603 887L734 887Q721 823 660.50 785Q600 747 512 747M491 940Q531 958 531 982Q531 991 524 996.50Q517 1002 506 1002Q482 1002 458 990L433 1051Q477 1076 532 1076Q577 1076 604 1056Q631 1036 631 1001Q631 965 604 937.50Q577 910 537 895L491 940Z"  horiz-adv-x="806" vert-adv-y="1000"  />

      
      <glyph glyph-name="uni1EB4" unicode="&#x1EB4;" d="M512 122L245 122L175 0L-74 0L372 700L604 700L770 0L535 0L512 122M479 292L445 471L342 292L479 292M512 747Q419 747 365.50 785Q312 823 316 887L439 887Q440 868 462 856.50Q484 845 519 845Q553 845 575.50 856.50Q598 868 603 887L734 887Q721 823 660.50 785Q600 747 512 747M615 915Q587 915 566.50 923.50Q546 932 521 947Q506 956 497 960.50Q488 965 479 965Q461 965 449 953.50Q437 942 433 924L323 924Q334 995 374.50 1034Q415 1073 479 1073Q507 1073 527 1065Q547 1057 574 1041Q589 1032 598.50 1027.50Q608 1023 617 1023Q636 1023 648 1034.50Q660 1046 664 1064L771 1064Q761 994 721 954.50Q681 915 615 915Z"  horiz-adv-x="806" vert-adv-y="1000"  />

      
      <glyph glyph-name="uni01CD" unicode="&#x01CD;" d="M512 122L245 122L175 0L-74 0L372 700L604 700L770 0L535 0L512 122M479 292L445 471L342 292L479 292M747 917L595 757L403 757L299 917L435 917L508 840L603 917L747 917Z"  horiz-adv-x="806" vert-adv-y="1000"  />

      
      <glyph glyph-name="unic2" unicode="&#xc2;" d="M512 122L245 122L175 0L-74 0L372 700L604 700L770 0L535 0L512 122M479 292L445 471L342 292L479 292M587 757L514 834L419 757L275 757L427 917L619 917L723 757L587 757Z"  horiz-adv-x="806" vert-adv-y="1000"  />

      
      <glyph glyph-name="uni1EA4" unicode="&#x1EA4;" d="M512 122L245 122L175 0L-74 0L372 700L604 700L770 0L535 0L512 122M479 292L445 471L342 292L479 292M586 757L511 818L418 757L275 757L424 887L614 887L723 757L586 757M758 992L977 992L796 862L642 862L758 992Z"  horiz-adv-x="806" vert-adv-y="1000"  />

      
      <glyph glyph-name="uni1EAC" unicode="&#x1EAC;" d="M512 122L245 122L175 0L-74 0L372 700L604 700L770 0L535 0L512 122M479 292L445 471L342 292L479 292M313-226Q276-226 252.50-203.50Q229-181 229-146Q229-105 258.50-77.50Q288-50 327-50Q363-50 387-72Q411-94 411-128Q411-173 383-199.50Q355-226 313-226M587 757L514 834L419 757L275 757L427 917L619 917L723 757L587 757Z"  horiz-adv-x="806" vert-adv-y="1000"  />

      
      <glyph glyph-name="uni1EA6" unicode="&#x1EA6;" d="M512 122L245 122L175 0L-74 0L372 700L604 700L770 0L535 0L512 122M479 292L445 471L342 292L479 292M586 757L511 818L418 757L275 757L424 887L614 887L723 757L586 757M563 992L778 992L854 862L704 862L563 992Z"  horiz-adv-x="806" vert-adv-y="1000"  />

      
      <glyph glyph-name="uni1EA8" unicode="&#x1EA8;" d="M512 122L245 122L175 0L-74 0L372 700L604 700L770 0L535 0L512 122M479 292L445 471L342 292L479 292M586 757L511 818L418 757L275 757L424 887L614 887L723 757L586 757M671 887Q711 905 711 929Q711 938 704 943.50Q697 949 686 949Q662 949 638 937L613 998Q657 1023 712 1023Q757 1023 784 1003Q811 983 811 948Q811 912 784 884.50Q757 857 717 842L671 887Z"  horiz-adv-x="806" vert-adv-y="1000"  />

      
      <glyph glyph-name="uni1EAA" unicode="&#x1EAA;" d="M512 122L245 122L175 0L-74 0L372 700L604 700L770 0L535 0L512 122M479 292L445 471L342 292L479 292M586 757L511 818L418 757L275 757L424 887L614 887L723 757L586 757M616 922Q588 922 567.50 930.50Q547 939 522 954Q507 963 498 967.50Q489 972 480 972Q462 972 450 960.50Q438 949 434 931L324 931Q335 1002 375.50 1041Q416 1080 480 1080Q508 1080 528 1072Q548 1064 575 1048Q590 1039 599.50 1034.50Q609 1030 618 1030Q637 1030 649 1041.50Q661 1053 665 1071L772 1071Q762 1001 722 961.50Q682 922 616 922Z"  horiz-adv-x="806" vert-adv-y="1000"  />

      
      <glyph glyph-name="uni0200" unicode="&#x0200;" d="M512 122L245 122L175 0L-74 0L372 700L604 700L770 0L535 0L512 122M479 292L445 471L342 292L479 292M247 917L432 917L452 757L312 757L247 917M481 917L666 917L686 757L546 757L481 917Z"  horiz-adv-x="806" vert-adv-y="1000"  />

      
      <glyph glyph-name="unic4" unicode="&#xc4;" d="M512 122L245 122L175 0L-74 0L372 700L604 700L770 0L535 0L512 122M479 292L445 471L342 292L479 292M397 749Q360 749 336.50 770.50Q313 792 313 828Q313 871 341.50 898.50Q370 926 410 926Q447 926 470.50 904Q494 882 494 846Q494 803 465.50 776Q437 749 397 749M619 749Q582 749 558.50 770.50Q535 792 535 828Q535 871 563.50 898.50Q592 926 632 926Q669 926 692.50 904Q716 882 716 846Q716 803 687.50 776Q659 749 619 749Z"  horiz-adv-x="806" vert-adv-y="1000"  />

      
      <glyph glyph-name="uni1EA0" unicode="&#x1EA0;" d="M512 122L245 122L175 0L-74 0L372 700L604 700L770 0L535 0L512 122M479 292L445 471L342 292L479 292M313-226Q276-226 252.50-203.50Q229-181 229-146Q229-105 258.50-77.50Q288-50 327-50Q363-50 387-72Q411-94 411-128Q411-173 383-199.50Q355-226 313-226Z"  horiz-adv-x="806" vert-adv-y="1000"  />

      
      <glyph glyph-name="unic0" unicode="&#xc0;" d="M512 122L245 122L175 0L-74 0L372 700L604 700L770 0L535 0L512 122M479 292L445 471L342 292L479 292M289 917L504 917L604 757L454 757L289 917Z"  horiz-adv-x="806" vert-adv-y="1000"  />

      
      <glyph glyph-name="uni1EA2" unicode="&#x1EA2;" d="M512 122L245 122L175 0L-74 0L372 700L604 700L770 0L535 0L512 122M479 292L445 471L342 292L479 292M488 812Q520 826 531.50 840.50Q543 855 543 872Q543 887 533.50 895.50Q524 904 507 904Q477 904 447 884L412 968Q468 1008 545 1008Q604 1008 638 979Q672 950 672 901Q672 801 547 747L488 812Z"  horiz-adv-x="806" vert-adv-y="1000"  />

      
      <glyph glyph-name="uni0202" unicode="&#x0202;" d="M512 122L245 122L175 0L-74 0L372 700L604 700L770 0L535 0L512 122M479 292L445 471L342 292L479 292M290 757Q306 836 368 881.50Q430 927 523 927Q605 927 657 886Q709 845 709 776Q709 763 708 757L577 757Q578 785 559.50 801.50Q541 818 509 818Q477 818 456.50 801.50Q436 785 429 757L290 757Z"  horiz-adv-x="806" vert-adv-y="1000"  />

      
      <glyph glyph-name="uni0100" unicode="&#x0100;" d="M512 122L245 122L175 0L-74 0L372 700L604 700L770 0L535 0L512 122M479 292L445 471L342 292L479 292M317 896L737 896L713 778L293 778L317 896Z"  horiz-adv-x="806" vert-adv-y="1000"  />

      
      <glyph glyph-name="uni0104" unicode="&#x0104;" d="M512 122L245 122L175 0L-74 0L372 700L604 700L770 0L535 0L512 122M479 292L445 471L342 292L479 292M644-240Q577-240 537.50-211Q498-182 498-132Q498-70 554-24Q610 22 701 49L770 0Q694-24 665.50-47Q637-70 637-97Q637-116 649.50-127Q662-138 683-138Q711-138 743-124L752-217Q704-240 644-240Z"  horiz-adv-x="806" vert-adv-y="1000"  />

      
      <glyph glyph-name="unic5" unicode="&#xc5;" d="M512 122L245 122L175 0L-74 0L372 700L604 700L770 0L535 0L512 122M479 292L445 471L342 292L479 292M523 743Q484 743 452 761Q420 779 401.50 809.50Q383 840 383 877Q383 914 401.50 944.50Q420 975 452 993Q484 1011 523 1011Q562 1011 594 993Q626 975 644.50 944.50Q663 914 663 877Q663 840 644.50 809.50Q626 779 594 761Q562 743 523 743M523 823Q546 823 561.50 838Q577 853 577 877Q577 901 561.50 916Q546 931 523 931Q500 931 484.50 916Q469 901 469 877Q469 853 484.50 838Q500 823 523 823Z"  horiz-adv-x="806" vert-adv-y="1000"  />

      
      <glyph glyph-name="uni01FA" unicode="&#x01FA;" d="M512 122L245 122L175 0L-74 0L372 700L604 700L770 0L535 0L512 122M479 292L445 471L342 292L479 292M647 940Q663 910 663 877Q663 840 644.50 809.50Q626 779 594 761Q562 743 523 743Q484 743 452 761Q420 779 401.50 809.50Q383 840 383 877Q383 914 401.50 944.50Q420 975 452 993Q484 1011 523 1011Q544 1011 570 1004L662 1101L771 1020L647 940M523 823Q546 823 561.50 838Q577 853 577 877Q577 901 561.50 916Q546 931 523 931Q500 931 484.50 916Q469 901 469 877Q469 853 484.50 838Q500 823 523 823Z"  horiz-adv-x="806" vert-adv-y="1000"  />

      
      <glyph glyph-name="unic3" unicode="&#xc3;" d="M512 122L245 122L175 0L-74 0L372 700L604 700L770 0L535 0L512 122M479 292L445 471L342 292L479 292M588 747Q558 747 536.50 756.50Q515 766 490 784Q472 796 462.50 801Q453 806 442 806Q423 806 409.50 793Q396 780 391 757L284 757Q298 841 339 885.50Q380 930 442 930Q472 930 493.50 920.50Q515 911 541 893Q557 882 567.50 876.50Q578 871 589 871Q608 871 621 883.50Q634 896 639 917L746 917Q733 835 691.50 791Q650 747 588 747Z"  horiz-adv-x="806" vert-adv-y="1000"  />

      
      <glyph glyph-name="unic6" unicode="&#xc6;" d="M789 522L773 440L1069 440L1035 270L738 270L720 178L1071 178L1035 0L453 0L477 122L264 122L180 0L-74 0L430 700L1162 700L1126 522L789 522M511 292L557 522L539 522L381 292L511 292Z"  horiz-adv-x="1124" vert-adv-y="1000"  />

      
      <glyph glyph-name="uni01FC" unicode="&#x01FC;" d="M789 522L773 440L1069 440L1035 270L738 270L720 178L1071 178L1035 0L453 0L477 122L264 122L180 0L-74 0L430 700L1162 700L1126 522L789 522M511 292L557 522L539 522L381 292L511 292M762 917L983 917L768 757L612 757L762 917Z"  horiz-adv-x="1124" vert-adv-y="1000"  />

      
      <glyph glyph-name="uni42" unicode="&#x42;" d="M639 360Q684 340 708.50 305.50Q733 271 733 223Q733 112 641.50 56Q550 0 406 0L2 0L142 700L513 700Q636 700 700 656.50Q764 613 764 533Q764 474 731 429.50Q698 385 639 360M341 535L320 431L440 431Q518 431 518 492Q518 513 502 524Q486 535 456 535L341 535M419 165Q455 165 477 181.50Q499 198 499 229Q499 251 482.50 263Q466 275 441 275L289 275L267 165L419 165Z"  horiz-adv-x="773" vert-adv-y="1000"  />

      
      <glyph glyph-name="uni43" unicode="&#x43;" d="M400-16Q293-16 211.50 23.50Q130 63 85.50 134Q41 205 41 297Q41 419 97.50 514Q154 609 254.50 662.50Q355 716 483 716Q584 716 662 679.50Q740 643 778 576L608 443Q561 525 468 525Q413 525 370 498Q327 471 303 422.50Q279 374 279 312Q279 250 318.50 212.50Q358 175 423 175Q512 175 579 256L718 123Q657 48 579.50 16Q502-16 400-16Z"  horiz-adv-x="744" vert-adv-y="1000"  />

      
      <glyph glyph-name="uni0106" unicode="&#x0106;" d="M400-16Q293-16 211.50 23.50Q130 63 85.50 134Q41 205 41 297Q41 419 97.50 514Q154 609 254.50 662.50Q355 716 483 716Q584 716 662 679.50Q740 643 778 576L608 443Q561 525 468 525Q413 525 370 498Q327 471 303 422.50Q279 374 279 312Q279 250 318.50 212.50Q358 175 423 175Q512 175 579 256L718 123Q657 48 579.50 16Q502-16 400-16M556 918L777 918L562 758L406 758L556 918Z"  horiz-adv-x="744" vert-adv-y="1000"  />

      
      <glyph glyph-name="uni010C" unicode="&#x010C;" d="M400-16Q293-16 211.50 23.50Q130 63 85.50 134Q41 205 41 297Q41 419 97.50 514Q154 609 254.50 662.50Q355 716 483 716Q584 716 662 679.50Q740 643 778 576L608 443Q561 525 468 525Q413 525 370 498Q327 471 303 422.50Q279 374 279 312Q279 250 318.50 212.50Q358 175 423 175Q512 175 579 256L718 123Q657 48 579.50 16Q502-16 400-16M762 918L610 758L418 758L314 918L450 918L523 841L618 918L762 918Z"  horiz-adv-x="744" vert-adv-y="1000"  />

      
      <glyph glyph-name="unic7" unicode="&#xc7;" d="M400-16Q293-16 211.50 23.50Q130 63 85.50 134Q41 205 41 297Q41 419 97.50 514Q154 609 254.50 662.50Q355 716 483 716Q584 716 662 679.50Q740 643 778 576L608 443Q561 525 468 525Q413 525 370 498Q327 471 303 422.50Q279 374 279 312Q279 250 318.50 212.50Q358 175 423 175Q512 175 579 256L718 123Q657 48 579.50 16Q502-16 400-16M268-240Q239-240 211-234Q183-228 164-219L209-136Q237-148 272-148Q296-148 307.50-141Q319-134 319-122Q319-104 285-104L241-104L291 10L407 10L381-52Q416-58 433.50-77Q451-96 451-122Q451-127 449-137Q439-185 391-212.50Q343-240 268-240Z"  horiz-adv-x="744" vert-adv-y="1000"  />

      
      <glyph glyph-name="uni1E08" unicode="&#x1E08;" d="M400-16Q293-16 211.50 23.50Q130 63 85.50 134Q41 205 41 297Q41 419 97.50 514Q154 609 254.50 662.50Q355 716 483 716Q584 716 662 679.50Q740 643 778 576L608 443Q561 525 468 525Q413 525 370 498Q327 471 303 422.50Q279 374 279 312Q279 250 318.50 212.50Q358 175 423 175Q512 175 579 256L718 123Q657 48 579.50 16Q502-16 400-16M268-240Q239-240 211-234Q183-228 164-219L209-136Q237-148 272-148Q296-148 307.50-141Q319-134 319-122Q319-104 285-104L241-104L291 10L407 10L381-52Q416-58 433.50-77Q451-96 451-122Q451-127 449-137Q439-185 391-212.50Q343-240 268-240M556 918L777 918L562 758L406 758L556 918Z"  horiz-adv-x="744" vert-adv-y="1000"  />

      
      <glyph glyph-name="uni0108" unicode="&#x0108;" d="M400-16Q293-16 211.50 23.50Q130 63 85.50 134Q41 205 41 297Q41 419 97.50 514Q154 609 254.50 662.50Q355 716 483 716Q584 716 662 679.50Q740 643 778 576L608 443Q561 525 468 525Q413 525 370 498Q327 471 303 422.50Q279 374 279 312Q279 250 318.50 212.50Q358 175 423 175Q512 175 579 256L718 123Q657 48 579.50 16Q502-16 400-16M602 758L529 835L434 758L290 758L442 918L634 918L738 758L602 758Z"  horiz-adv-x="744" vert-adv-y="1000"  />

      
      <glyph glyph-name="uni010A" unicode="&#x010A;" d="M400-16Q293-16 211.50 23.50Q130 63 85.50 134Q41 205 41 297Q41 419 97.50 514Q154 609 254.50 662.50Q355 716 483 716Q584 716 662 679.50Q740 643 778 576L608 443Q561 525 468 525Q413 525 370 498Q327 471 303 422.50Q279 374 279 312Q279 250 318.50 212.50Q358 175 423 175Q512 175 579 256L718 123Q657 48 579.50 16Q502-16 400-16M526 748Q478 748 449 776Q420 804 420 848Q420 905 455.50 940.50Q491 976 544 976Q592 976 621 948Q650 920 650 876Q650 819 614.50 783.50Q579 748 526 748Z"  horiz-adv-x="744" vert-adv-y="1000"  />

      
      <glyph glyph-name="uni44" unicode="&#x44;" d="M142 700L458 700Q568 700 648.50 664Q729 628 772 561Q815 494 815 403Q815 282 759 190.50Q703 99 603.50 49.50Q504 0 377 0L2 0L142 700M385 184Q476 184 526.50 241.50Q577 299 577 389Q577 450 539.50 483Q502 516 431 516L341 516L275 184L385 184Z"  horiz-adv-x="826" vert-adv-y="1000"  />

      
      <glyph glyph-name="uni01C4" unicode="&#x01C4;" d="M142 700L458 700Q568 700 648.50 664Q729 628 772 561Q815 494 815 403Q815 282 759 190.50Q703 99 603.50 49.50Q504 0 377 0L2 0L142 700M385 184Q476 184 526.50 241.50Q577 299 577 389Q577 450 539.50 483Q502 516 431 516L341 516L275 184L385 184M1474 555L1086 183L1416 183L1379 0L736 0L765 145L1153 517L849 517L886 700L1503 700L1474 555M1457 917L1305 757L1113 757L1009 917L1145 917L1218 840L1313 917L1457 917Z"  horiz-adv-x="1442" vert-adv-y="1000"  />

      
      <glyph glyph-name="unid0" unicode="&#xd0;" d="M162 700L478 700Q588 700 668.50 664Q749 628 792 561Q835 494 835 403Q835 282 779 190.50Q723 99 623.50 49.50Q524 0 397 0L22 0L162 700M405 184Q496 184 546.50 241.50Q597 299 597 389Q597 450 559.50 483Q522 516 451 516L361 516L295 184L405 184M21 423L491 423L464 287L-6 287L21 423Z"  horiz-adv-x="846" vert-adv-y="1000"  />

      
      <glyph glyph-name="uni010E" unicode="&#x010E;" d="M142 700L458 700Q568 700 648.50 664Q729 628 772 561Q815 494 815 403Q815 282 759 190.50Q703 99 603.50 49.50Q504 0 377 0L2 0L142 700M385 184Q476 184 526.50 241.50Q577 299 577 389Q577 450 539.50 483Q502 516 431 516L341 516L275 184L385 184M701 917L549 757L357 757L253 917L389 917L462 840L557 917L701 917Z"  horiz-adv-x="826" vert-adv-y="1000"  />

      
      <glyph glyph-name="uni0110" unicode="&#x0110;" d="M162 700L478 700Q588 700 668.50 664Q749 628 792 561Q835 494 835 403Q835 282 779 190.50Q723 99 623.50 49.50Q524 0 397 0L22 0L162 700M405 184Q496 184 546.50 241.50Q597 299 597 389Q597 450 559.50 483Q522 516 451 516L361 516L295 184L405 184M21 423L491 423L464 287L-6 287L21 423Z"  horiz-adv-x="846" vert-adv-y="1000"  />

      
      <glyph glyph-name="uni1E0C" unicode="&#x1E0C;" d="M142 700L458 700Q568 700 648.50 664Q729 628 772 561Q815 494 815 403Q815 282 759 190.50Q703 99 603.50 49.50Q504 0 377 0L2 0L142 700M385 184Q476 184 526.50 241.50Q577 299 577 389Q577 450 539.50 483Q502 516 431 516L341 516L275 184L385 184M269-226Q232-226 208.50-203.50Q185-181 185-146Q185-105 214.50-77.50Q244-50 283-50Q319-50 343-72Q367-94 367-128Q367-173 339-199.50Q311-226 269-226Z"  horiz-adv-x="826" vert-adv-y="1000"  />

      
      <glyph glyph-name="uni1E0E" unicode="&#x1E0E;" d="M142 700L458 700Q568 700 648.50 664Q729 628 772 561Q815 494 815 403Q815 282 759 190.50Q703 99 603.50 49.50Q504 0 377 0L2 0L142 700M385 184Q476 184 526.50 241.50Q577 299 577 389Q577 450 539.50 483Q502 516 431 516L341 516L275 184L385 184M79-74L499-74L476-192L56-192L79-74Z"  horiz-adv-x="826" vert-adv-y="1000"  />

      
      <glyph glyph-name="uni01C5" unicode="&#x01C5;" d="M142 700L458 700Q568 700 648.50 664Q729 628 772 561Q815 494 815 403Q815 282 759 190.50Q703 99 603.50 49.50Q504 0 377 0L2 0L142 700M385 184Q476 184 526.50 241.50Q577 299 577 389Q577 450 539.50 483Q502 516 431 516L341 516L275 184L385 184M1395 417L1127 165L1356 165L1323 0L801 0L827 130L1095 382L885 382L918 547L1421 547L1395 417M1430 767L1278 607L1086 607L982 767L1118 767L1191 690L1286 767L1430 767Z"  horiz-adv-x="1396" vert-adv-y="1000"  />

      
      <glyph glyph-name="uni45" unicode="&#x45;" d="M338 522L322 440L618 440L584 270L287 270L269 178L620 178L584 0L2 0L142 700L711 700L675 522L338 522Z"  horiz-adv-x="673" vert-adv-y="1000"  />

      
      <glyph glyph-name="unic9" unicode="&#xc9;" d="M338 522L322 440L618 440L584 270L287 270L269 178L620 178L584 0L2 0L142 700L711 700L675 522L338 522M480 917L701 917L486 757L330 757L480 917Z"  horiz-adv-x="673" vert-adv-y="1000"  />

      
      <glyph glyph-name="uni0114" unicode="&#x0114;" d="M338 522L322 440L618 440L584 270L287 270L269 178L620 178L584 0L2 0L142 700L711 700L675 522L338 522M447 747Q364 747 312 788Q260 829 260 898Q260 911 261 917L392 917Q391 889 409.50 872.50Q428 856 460 856Q492 856 512.50 872.50Q533 889 540 917L679 917Q663 838 601 792.50Q539 747 447 747Z"  horiz-adv-x="673" vert-adv-y="1000"  />

      
      <glyph glyph-name="uni011A" unicode="&#x011A;" d="M338 522L322 440L618 440L584 270L287 270L269 178L620 178L584 0L2 0L142 700L711 700L675 522L338 522M686 917L534 757L342 757L238 917L374 917L447 840L542 917L686 917Z"  horiz-adv-x="673" vert-adv-y="1000"  />

      
      <glyph glyph-name="uni1E1C" unicode="&#x1E1C;" d="M338 522L322 440L618 440L584 270L287 270L269 178L620 178L584 0L2 0L142 700L711 700L675 522L338 522M208-240Q179-240 151-234Q123-228 104-219L149-136Q177-148 212-148Q236-148 247.50-141Q259-134 259-122Q259-104 225-104L181-104L231 10L347 10L321-52Q356-58 373.50-77Q391-96 391-122Q391-127 389-137Q379-185 331-212.50Q283-240 208-240M447 747Q364 747 312 788Q260 829 260 898Q260 911 261 917L392 917Q391 889 409.50 872.50Q428 856 460 856Q492 856 512.50 872.50Q533 889 540 917L679 917Q663 838 601 792.50Q539 747 447 747Z"  horiz-adv-x="673" vert-adv-y="1000"  />

      
      <glyph glyph-name="unica" unicode="&#xca;" d="M338 522L322 440L618 440L584 270L287 270L269 178L620 178L584 0L2 0L142 700L711 700L675 522L338 522M526 757L453 834L358 757L214 757L366 917L558 917L662 757L526 757Z"  horiz-adv-x="673" vert-adv-y="1000"  />

      
      <glyph glyph-name="uni1EBE" unicode="&#x1EBE;" d="M338 522L322 440L618 440L584 270L287 270L269 178L620 178L584 0L2 0L142 700L711 700L675 522L338 522M525 757L450 818L357 757L214 757L363 887L553 887L662 757L525 757M697 992L916 992L735 862L581 862L697 992Z"  horiz-adv-x="673" vert-adv-y="1000"  />

      
      <glyph glyph-name="uni1EC6" unicode="&#x1EC6;" d="M338 522L322 440L618 440L584 270L287 270L269 178L620 178L584 0L2 0L142 700L711 700L675 522L338 522M252-226Q215-226 191.50-203.50Q168-181 168-146Q168-105 197.50-77.50Q227-50 266-50Q302-50 326-72Q350-94 350-128Q350-173 322-199.50Q294-226 252-226M526 757L453 834L358 757L214 757L366 917L558 917L662 757L526 757Z"  horiz-adv-x="673" vert-adv-y="1000"  />

      
      <glyph glyph-name="uni1EC0" unicode="&#x1EC0;" d="M338 522L322 440L618 440L584 270L287 270L269 178L620 178L584 0L2 0L142 700L711 700L675 522L338 522M525 757L450 818L357 757L214 757L363 887L553 887L662 757L525 757M502 992L717 992L793 862L643 862L502 992Z"  horiz-adv-x="673" vert-adv-y="1000"  />

      
      <glyph glyph-name="uni1EC2" unicode="&#x1EC2;" d="M338 522L322 440L618 440L584 270L287 270L269 178L620 178L584 0L2 0L142 700L711 700L675 522L338 522M525 757L450 818L357 757L214 757L363 887L553 887L662 757L525 757M610 887Q650 905 650 929Q650 938 643 943.50Q636 949 625 949Q601 949 577 937L552 998Q596 1023 651 1023Q696 1023 723 1003Q750 983 750 948Q750 912 723 884.50Q696 857 656 842L610 887Z"  horiz-adv-x="673" vert-adv-y="1000"  />

      
      <glyph glyph-name="uni1EC4" unicode="&#x1EC4;" d="M338 522L322 440L618 440L584 270L287 270L269 178L620 178L584 0L2 0L142 700L711 700L675 522L338 522M525 757L450 818L357 757L214 757L363 887L553 887L662 757L525 757M555 922Q527 922 506.50 930.50Q486 939 461 954Q446 963 437 967.50Q428 972 419 972Q401 972 389 960.50Q377 949 373 931L263 931Q274 1002 314.50 1041Q355 1080 419 1080Q447 1080 467 1072Q487 1064 514 1048Q529 1039 538.50 1034.50Q548 1030 557 1030Q576 1030 588 1041.50Q600 1053 604 1071L711 1071Q701 1001 661 961.50Q621 922 555 922Z"  horiz-adv-x="673" vert-adv-y="1000"  />

      
      <glyph glyph-name="uni0204" unicode="&#x0204;" d="M338 522L322 440L618 440L584 270L287 270L269 178L620 178L584 0L2 0L142 700L711 700L675 522L338 522M186 917L371 917L391 757L251 757L186 917M420 917L605 917L625 757L485 757L420 917Z"  horiz-adv-x="673" vert-adv-y="1000"  />

      
      <glyph glyph-name="unicb" unicode="&#xcb;" d="M338 522L322 440L618 440L584 270L287 270L269 178L620 178L584 0L2 0L142 700L711 700L675 522L338 522M336 749Q299 749 275.50 770.50Q252 792 252 828Q252 871 280.50 898.50Q309 926 349 926Q386 926 409.50 904Q433 882 433 846Q433 803 404.50 776Q376 749 336 749M558 749Q521 749 497.50 770.50Q474 792 474 828Q474 871 502.50 898.50Q531 926 571 926Q608 926 631.50 904Q655 882 655 846Q655 803 626.50 776Q598 749 558 749Z"  horiz-adv-x="673" vert-adv-y="1000"  />

      
      <glyph glyph-name="uni0116" unicode="&#x0116;" d="M338 522L322 440L618 440L584 270L287 270L269 178L620 178L584 0L2 0L142 700L711 700L675 522L338 522M450 747Q402 747 373 775Q344 803 344 847Q344 904 379.50 939.50Q415 975 468 975Q516 975 545 947Q574 919 574 875Q574 818 538.50 782.50Q503 747 450 747Z"  horiz-adv-x="673" vert-adv-y="1000"  />

      
      <glyph glyph-name="uni1EB8" unicode="&#x1EB8;" d="M338 522L322 440L618 440L584 270L287 270L269 178L620 178L584 0L2 0L142 700L711 700L675 522L338 522M252-226Q215-226 191.50-203.50Q168-181 168-146Q168-105 197.50-77.50Q227-50 266-50Q302-50 326-72Q350-94 350-128Q350-173 322-199.50Q294-226 252-226Z"  horiz-adv-x="673" vert-adv-y="1000"  />

      
      <glyph glyph-name="unic8" unicode="&#xc8;" d="M338 522L322 440L618 440L584 270L287 270L269 178L620 178L584 0L2 0L142 700L711 700L675 522L338 522M228 917L443 917L543 757L393 757L228 917Z"  horiz-adv-x="673" vert-adv-y="1000"  />

      
      <glyph glyph-name="uni1EBA" unicode="&#x1EBA;" d="M338 522L322 440L618 440L584 270L287 270L269 178L620 178L584 0L2 0L142 700L711 700L675 522L338 522M427 812Q459 826 470.50 840.50Q482 855 482 872Q482 887 472.50 895.50Q463 904 446 904Q416 904 386 884L351 968Q407 1008 484 1008Q543 1008 577 979Q611 950 611 901Q611 801 486 747L427 812Z"  horiz-adv-x="673" vert-adv-y="1000"  />

      
      <glyph glyph-name="uni0206" unicode="&#x0206;" d="M338 522L322 440L618 440L584 270L287 270L269 178L620 178L584 0L2 0L142 700L711 700L675 522L338 522M229 757Q245 836 307 881.50Q369 927 462 927Q544 927 596 886Q648 845 648 776Q648 763 647 757L516 757Q517 785 498.50 801.50Q480 818 448 818Q416 818 395.50 801.50Q375 785 368 757L229 757Z"  horiz-adv-x="673" vert-adv-y="1000"  />

      
      <glyph glyph-name="uni0112" unicode="&#x0112;" d="M338 522L322 440L618 440L584 270L287 270L269 178L620 178L584 0L2 0L142 700L711 700L675 522L338 522M256 896L676 896L652 778L232 778L256 896Z"  horiz-adv-x="673" vert-adv-y="1000"  />

      
      <glyph glyph-name="uni1E16" unicode="&#x1E16;" d="M338 522L322 440L618 440L584 270L287 270L269 178L620 178L584 0L2 0L142 700L711 700L675 522L338 522M251 878L671 878L649 766L229 766L251 878M483 1070L702 1070L521 940L367 940L483 1070Z"  horiz-adv-x="673" vert-adv-y="1000"  />

      
      <glyph glyph-name="uni1E14" unicode="&#x1E14;" d="M338 522L322 440L618 440L584 270L287 270L269 178L620 178L584 0L2 0L142 700L711 700L675 522L338 522M252 878L672 878L650 766L230 766L252 878M289 1070L504 1070L580 940L430 940L289 1070Z"  horiz-adv-x="673" vert-adv-y="1000"  />

      
      <glyph glyph-name="uni0118" unicode="&#x0118;" d="M338 522L322 440L618 440L584 270L287 270L269 178L620 178L584 0L2 0L142 700L711 700L675 522L338 522M458-240Q391-240 351.50-211Q312-182 312-132Q312-70 368-24Q424 22 515 49L584 0Q508-24 479.50-47Q451-70 451-97Q451-116 463.50-127Q476-138 497-138Q525-138 557-124L566-217Q518-240 458-240Z"  horiz-adv-x="673" vert-adv-y="1000"  />

      
      <glyph glyph-name="uni1EBC" unicode="&#x1EBC;" d="M338 522L322 440L618 440L584 270L287 270L269 178L620 178L584 0L2 0L142 700L711 700L675 522L338 522M527 747Q497 747 475.50 756.50Q454 766 429 784Q411 796 401.50 801Q392 806 381 806Q362 806 348.50 793Q335 780 330 757L223 757Q237 841 278 885.50Q319 930 381 930Q411 930 432.50 920.50Q454 911 480 893Q496 882 506.50 876.50Q517 871 528 871Q547 871 560 883.50Q573 896 578 917L685 917Q672 835 630.50 791Q589 747 527 747Z"  horiz-adv-x="673" vert-adv-y="1000"  />

      
      <glyph glyph-name="uni01B7" unicode="&#x01B7;" d="M625 555L465 417Q528 397 563 352Q598 307 598 246Q598 172 551.50 112Q505 52 424 18Q343-16 243-16Q166-16 96.50 2Q27 20-27 57L80 221Q120 196 167 183Q214 170 259 170Q308 170 334 185.50Q360 201 360 230Q360 272 290 272L193 272L222 417L344 522L96 522L132 700L654 700L625 555Z"  horiz-adv-x="630" vert-adv-y="1000"  />

      
      <glyph glyph-name="uni01EE" unicode="&#x01EE;" d="M625 555L465 417Q528 397 563 352Q598 307 598 246Q598 172 551.50 112Q505 52 424 18Q343-16 243-16Q166-16 96.50 2Q27 20-27 57L80 221Q120 196 167 183Q214 170 259 170Q308 170 334 185.50Q360 201 360 230Q360 272 290 272L193 272L222 417L344 522L96 522L132 700L654 700L625 555M650 917L498 757L306 757L202 917L338 917L411 840L506 917L650 917Z"  horiz-adv-x="630" vert-adv-y="1000"  />

      
      <glyph glyph-name="uni46" unicode="&#x46;" d="M342 522L318 402L610 402L574 224L283 224L238 0L2 0L142 700L711 700L675 522L342 522Z"  horiz-adv-x="644" vert-adv-y="1000"  />

      
      <glyph glyph-name="uni47" unicode="&#x47;" d="M539 369L744 369L684 67Q628 27 555.50 5.50Q483-16 400-16Q293-16 211.50 23.50Q130 63 85.50 134Q41 205 41 297Q41 419 98 514Q155 609 257 662.50Q359 716 491 716Q709 716 809 579L640 448Q607 490 569 507.50Q531 525 480 525Q419 525 373.50 498Q328 471 303.50 422.50Q279 374 279 312Q279 250 320 212.50Q361 175 433 175Q469 175 502 185L539 369Z"  horiz-adv-x="769" vert-adv-y="1000"  />

      
      <glyph glyph-name="uni011E" unicode="&#x011E;" d="M539 369L744 369L684 67Q628 27 555.50 5.50Q483-16 400-16Q293-16 211.50 23.50Q130 63 85.50 134Q41 205 41 297Q41 419 98 514Q155 609 257 662.50Q359 716 491 716Q709 716 809 579L640 448Q607 490 569 507.50Q531 525 480 525Q419 525 373.50 498Q328 471 303.50 422.50Q279 374 279 312Q279 250 320 212.50Q361 175 433 175Q469 175 502 185L539 369M529 748Q446 748 394 789Q342 830 342 899Q342 912 343 918L474 918Q473 890 491.50 873.50Q510 857 542 857Q574 857 594.50 873.50Q615 890 622 918L761 918Q745 839 683 793.50Q621 748 529 748Z"  horiz-adv-x="769" vert-adv-y="1000"  />

      
      <glyph glyph-name="uni01E6" unicode="&#x01E6;" d="M539 369L744 369L684 67Q628 27 555.50 5.50Q483-16 400-16Q293-16 211.50 23.50Q130 63 85.50 134Q41 205 41 297Q41 419 98 514Q155 609 257 662.50Q359 716 491 716Q709 716 809 579L640 448Q607 490 569 507.50Q531 525 480 525Q419 525 373.50 498Q328 471 303.50 422.50Q279 374 279 312Q279 250 320 212.50Q361 175 433 175Q469 175 502 185L539 369M768 918L616 758L424 758L320 918L456 918L529 841L624 918L768 918Z"  horiz-adv-x="769" vert-adv-y="1000"  />

      
      <glyph glyph-name="uni011C" unicode="&#x011C;" d="M539 369L744 369L684 67Q628 27 555.50 5.50Q483-16 400-16Q293-16 211.50 23.50Q130 63 85.50 134Q41 205 41 297Q41 419 98 514Q155 609 257 662.50Q359 716 491 716Q709 716 809 579L640 448Q607 490 569 507.50Q531 525 480 525Q419 525 373.50 498Q328 471 303.50 422.50Q279 374 279 312Q279 250 320 212.50Q361 175 433 175Q469 175 502 185L539 369M608 758L535 835L440 758L296 758L448 918L640 918L744 758L608 758Z"  horiz-adv-x="769" vert-adv-y="1000"  />

      
      <glyph glyph-name="uni0122" unicode="&#x0122;" d="M539 369L744 369L684 67Q628 27 555.50 5.50Q483-16 400-16Q293-16 211.50 23.50Q130 63 85.50 134Q41 205 41 297Q41 419 98 514Q155 609 257 662.50Q359 716 491 716Q709 716 809 579L640 448Q607 490 569 507.50Q531 525 480 525Q419 525 373.50 498Q328 471 303.50 422.50Q279 374 279 312Q279 250 320 212.50Q361 175 433 175Q469 175 502 185L539 369M336-50Q378-50 399.50-68.50Q421-87 421-116Q421-136 412.50-155Q404-174 379-205L327-270L228-270L271-189Q238-173 238-137Q238-98 263.50-74Q289-50 336-50Z"  horiz-adv-x="769" vert-adv-y="1000"  />

      
      <glyph glyph-name="uni0120" unicode="&#x0120;" d="M539 369L744 369L684 67Q628 27 555.50 5.50Q483-16 400-16Q293-16 211.50 23.50Q130 63 85.50 134Q41 205 41 297Q41 419 98 514Q155 609 257 662.50Q359 716 491 716Q709 716 809 579L640 448Q607 490 569 507.50Q531 525 480 525Q419 525 373.50 498Q328 471 303.50 422.50Q279 374 279 312Q279 250 320 212.50Q361 175 433 175Q469 175 502 185L539 369M532 748Q484 748 455 776Q426 804 426 848Q426 905 461.50 940.50Q497 976 550 976Q598 976 627 948Q656 920 656 876Q656 819 620.50 783.50Q585 748 532 748Z"  horiz-adv-x="769" vert-adv-y="1000"  />

      
      <glyph glyph-name="uni1E20" unicode="&#x1E20;" d="M539 369L744 369L684 67Q628 27 555.50 5.50Q483-16 400-16Q293-16 211.50 23.50Q130 63 85.50 134Q41 205 41 297Q41 419 98 514Q155 609 257 662.50Q359 716 491 716Q709 716 809 579L640 448Q607 490 569 507.50Q531 525 480 525Q419 525 373.50 498Q328 471 303.50 422.50Q279 374 279 312Q279 250 320 212.50Q361 175 433 175Q469 175 502 185L539 369M338 897L758 897L734 779L314 779L338 897Z"  horiz-adv-x="769" vert-adv-y="1000"  />

      
      <glyph glyph-name="uni01E4" unicode="&#x01E4;" d="M539 369L744 369L684 67Q628 27 555.50 5.50Q483-16 400-16Q293-16 211.50 23.50Q130 63 85.50 134Q41 205 41 297Q41 419 98 514Q155 609 257 662.50Q359 716 491 716Q709 716 809 579L640 448Q607 490 569 507.50Q531 525 480 525Q419 525 373.50 498Q328 471 303.50 422.50Q279 374 279 312Q279 250 320 212.50Q361 175 433 175Q469 175 502 185L539 369M400.48 338.51L814.08 338.51L790.32 205.23L376.72 205.23L400.48 338.51Z"  horiz-adv-x="816" vert-adv-y="1000"  />

      
      <glyph glyph-name="uni48" unicode="&#x48;" d="M832 700L692 0L456 0L508 258L290 258L238 0L2 0L142 700L378 700L328 452L546 452L596 700L832 700Z"  horiz-adv-x="804" vert-adv-y="1000"  />

      
      <glyph glyph-name="uni0126" unicode="&#x0126;" d="M852 700L712 0L476 0L528 258L310 258L258 0L22 0L162 700L398 700L348 452L566 452L616 700L852 700M64 643L927 643L900 507L37 507L64 643Z"  horiz-adv-x="844" vert-adv-y="1000"  />

      
      <glyph glyph-name="uni1E2A" unicode="&#x1E2A;" d="M832 700L692 0L456 0L508 258L290 258L238 0L2 0L142 700L378 700L328 452L546 452L596 700L832 700M320-225Q262-225 217.50-206.50Q173-188 148.50-155Q124-122 124-82Q124-72 125-67L256-67Q255-93 273.50-108.50Q292-124 324-124Q356-124 376.50-109Q397-94 404-67L543-67Q527-140 466.50-182.50Q406-225 320-225Z"  horiz-adv-x="804" vert-adv-y="1000"  />

      
      <glyph glyph-name="uni021E" unicode="&#x021E;" d="M832 700L692 0L456 0L508 258L290 258L238 0L2 0L142 700L378 700L328 452L546 452L596 700L832 700M746 917L594 757L402 757L298 917L434 917L507 840L602 917L746 917Z"  horiz-adv-x="804" vert-adv-y="1000"  />

      
      <glyph glyph-name="uni0124" unicode="&#x0124;" d="M832 700L692 0L456 0L508 258L290 258L238 0L2 0L142 700L378 700L328 452L546 452L596 700L832 700M586 757L513 834L418 757L274 757L426 917L618 917L722 757L586 757Z"  horiz-adv-x="804" vert-adv-y="1000"  />

      
      <glyph glyph-name="uni1E24" unicode="&#x1E24;" d="M832 700L692 0L456 0L508 258L290 258L238 0L2 0L142 700L378 700L328 452L546 452L596 700L832 700M312-226Q275-226 251.50-203.50Q228-181 228-146Q228-105 257.50-77.50Q287-50 326-50Q362-50 386-72Q410-94 410-128Q410-173 382-199.50Q354-226 312-226Z"  horiz-adv-x="804" vert-adv-y="1000"  />

      
      <glyph glyph-name="uni49" unicode="&#x49;" d="M142 700L378 700L238 0L2 0L142 700Z"  horiz-adv-x="350" vert-adv-y="1000"  />

      
      <glyph glyph-name="uni0132" unicode="&#x0132;" d="M297-16Q113-16-8 69L106 238Q202 172 307 172Q369 172 402 204.50Q435 237 450 313L527 700L763 700L684 305Q619-16 297-16M136 700L372 700L299 336L63 336L136 700Z"  horiz-adv-x="729" vert-adv-y="1000"  />

      
      <glyph glyph-name="unicd" unicode="&#xcd;" d="M142 700L378 700L238 0L2 0L142 700M313 917L534 917L319 757L163 757L313 917Z"  horiz-adv-x="350" vert-adv-y="1000"  />

      
      <glyph glyph-name="uni012C" unicode="&#x012C;" d="M142 700L378 700L238 0L2 0L142 700M280 747Q197 747 145 788Q93 829 93 898Q93 911 94 917L225 917Q224 889 242.50 872.50Q261 856 293 856Q325 856 345.50 872.50Q366 889 373 917L512 917Q496 838 434 792.50Q372 747 280 747Z"  horiz-adv-x="350" vert-adv-y="1000"  />

      
      <glyph glyph-name="unice" unicode="&#xce;" d="M142 700L378 700L238 0L2 0L142 700M359 757L286 834L191 757L47 757L199 917L391 917L495 757L359 757Z"  horiz-adv-x="350" vert-adv-y="1000"  />

      
      <glyph glyph-name="uni0208" unicode="&#x0208;" d="M142 700L378 700L238 0L2 0L142 700M19 917L204 917L224 757L84 757L19 917M253 917L438 917L458 757L318 757L253 917Z"  horiz-adv-x="350" vert-adv-y="1000"  />

      
      <glyph glyph-name="unicf" unicode="&#xcf;" d="M142 700L378 700L238 0L2 0L142 700M169 749Q132 749 108.50 770.50Q85 792 85 828Q85 871 113.50 898.50Q142 926 182 926Q219 926 242.50 904Q266 882 266 846Q266 803 237.50 776Q209 749 169 749M391 749Q354 749 330.50 770.50Q307 792 307 828Q307 871 335.50 898.50Q364 926 404 926Q441 926 464.50 904Q488 882 488 846Q488 803 459.50 776Q431 749 391 749Z"  horiz-adv-x="350" vert-adv-y="1000"  />

      
      <glyph glyph-name="uni1E2E" unicode="&#x1E2E;" d="M142 700L378 700L238 0L2 0L142 700M174 748Q138 748 116.50 768.50Q95 789 95 823Q95 864 122 889.50Q149 915 186 915Q221 915 243 894Q265 873 265 839Q265 798 238 773Q211 748 174 748M386 748Q350 748 328.50 768.50Q307 789 307 823Q307 864 334 889.50Q361 915 398 915Q433 915 455 894Q477 873 477 839Q477 798 450 773Q423 748 386 748M317 1069L536 1069L355 939L201 939L317 1069Z"  horiz-adv-x="350" vert-adv-y="1000"  />

      
      <glyph glyph-name="uni0130" unicode="&#x0130;" d="M142 700L378 700L238 0L2 0L142 700M283 747Q235 747 206 775Q177 803 177 847Q177 904 212.50 939.50Q248 975 301 975Q349 975 378 947Q407 919 407 875Q407 818 371.50 782.50Q336 747 283 747Z"  horiz-adv-x="350" vert-adv-y="1000"  />

      
      <glyph glyph-name="uni1ECA" unicode="&#x1ECA;" d="M142 700L378 700L238 0L2 0L142 700M85-226Q48-226 24.50-203.50Q1-181 1-146Q1-105 30.50-77.50Q60-50 99-50Q135-50 159-72Q183-94 183-128Q183-173 155-199.50Q127-226 85-226Z"  horiz-adv-x="350" vert-adv-y="1000"  />

      
      <glyph glyph-name="unicc" unicode="&#xcc;" d="M142 700L378 700L238 0L2 0L142 700M61 917L276 917L376 757L226 757L61 917Z"  horiz-adv-x="350" vert-adv-y="1000"  />

      
      <glyph glyph-name="uni1EC8" unicode="&#x1EC8;" d="M142 700L378 700L238 0L2 0L142 700M260 812Q292 826 303.50 840.50Q315 855 315 872Q315 887 305.50 895.50Q296 904 279 904Q249 904 219 884L184 968Q240 1008 317 1008Q376 1008 410 979Q444 950 444 901Q444 801 319 747L260 812Z"  horiz-adv-x="350" vert-adv-y="1000"  />

      
      <glyph glyph-name="uni020A" unicode="&#x020A;" d="M142 700L378 700L238 0L2 0L142 700M62 757Q78 836 140 881.50Q202 927 295 927Q377 927 429 886Q481 845 481 776Q481 763 480 757L349 757Q350 785 331.50 801.50Q313 818 281 818Q249 818 228.50 801.50Q208 785 201 757L62 757Z"  horiz-adv-x="350" vert-adv-y="1000"  />

      
      <glyph glyph-name="uni012A" unicode="&#x012A;" d="M142 700L378 700L238 0L2 0L142 700M129 895L469 895L445 777L105 777L129 895Z"  horiz-adv-x="350" vert-adv-y="1000"  />

      
      <glyph glyph-name="uni012E" unicode="&#x012E;" d="M142 700L378 700L238 0L2 0L142 700M136-240Q76-240 42.50-209.50Q9-179 9-132Q9-70 57.50-23Q106 24 188 51L238 0Q192-28 170-54.50Q148-81 148-107Q148-121 156-129.50Q164-138 177-138Q195-138 212-127L222-217Q188-240 136-240Z"  horiz-adv-x="350" vert-adv-y="1000"  />

      
      <glyph glyph-name="uni0128" unicode="&#x0128;" d="M142 700L378 700L238 0L2 0L142 700M360 747Q330 747 308.50 756.50Q287 766 262 784Q244 796 234.50 801Q225 806 214 806Q195 806 181.50 793Q168 780 163 757L56 757Q70 841 111 885.50Q152 930 214 930Q244 930 265.50 920.50Q287 911 313 893Q329 882 339.50 876.50Q350 871 361 871Q380 871 393 883.50Q406 896 411 917L518 917Q505 835 463.50 791Q422 747 360 747Z"  horiz-adv-x="350" vert-adv-y="1000"  />

      
      <glyph glyph-name="uni4a" unicode="&#x4a;" d="M196-16Q20-16-58 92L93 235Q140 169 200 169Q233 169 254.50 189Q276 209 284 246L339 522L101 522L137 700L608 700L520 260Q491 112 412 48Q333-16 196-16Z"  horiz-adv-x="574" vert-adv-y="1000"  />

      
      <glyph glyph-name="uni0134" unicode="&#x0134;" d="M196-16Q20-16-58 92L93 235Q140 169 200 169Q233 169 254.50 189Q276 209 284 246L339 522L101 522L137 700L608 700L520 260Q491 112 412 48Q333-16 196-16M472 757L399 834L304 757L160 757L312 917L504 917L608 757L472 757Z"  horiz-adv-x="574" vert-adv-y="1000"  />

      
      <glyph glyph-name="uni4b" unicode="&#x4b;" d="M510 381L738 0L475 0L333 228L267 167L234 0L2 0L142 700L374 700L324 452L590 700L861 700L510 381Z"  horiz-adv-x="765" vert-adv-y="1000"  />

      
      <glyph glyph-name="uni01E8" unicode="&#x01E8;" d="M510 381L738 0L475 0L333 228L267 167L234 0L2 0L142 700L374 700L324 452L590 700L861 700L510 381M728 917L576 757L384 757L280 917L416 917L489 840L584 917L728 917Z"  horiz-adv-x="765" vert-adv-y="1000"  />

      
      <glyph glyph-name="uni0136" unicode="&#x0136;" d="M510 381L738 0L475 0L333 228L267 167L234 0L2 0L142 700L374 700L324 452L590 700L861 700L510 381M310-50Q352-50 373.50-68.50Q395-87 395-116Q395-136 386.50-155Q378-174 353-205L301-270L202-270L245-189Q212-173 212-137Q212-98 237.50-74Q263-50 310-50Z"  horiz-adv-x="765" vert-adv-y="1000"  />

      
      <glyph glyph-name="uni4c" unicode="&#x4c;" d="M142 700L378 700L275 183L591 183L554 0L2 0L142 700Z"  horiz-adv-x="617" vert-adv-y="1000"  />

      
      <glyph glyph-name="uni01C7" unicode="&#x01C7;" d="M142 700L378 700L275 183L591 183L554 0L2 0L142 700M813-16Q637-16 559 92L710 235Q757 169 817 169Q850 169 871.50 189Q893 209 901 246L956 522L718 522L754 700L1225 700L1137 260Q1108 112 1029 48Q950-16 813-16Z"  horiz-adv-x="1191" vert-adv-y="1000"  />

      
      <glyph glyph-name="uni0139" unicode="&#x0139;" d="M142 700L378 700L275 183L591 183L554 0L2 0L142 700M313 917L534 917L319 757L163 757L313 917Z"  horiz-adv-x="617" vert-adv-y="1000"  />

      
      <glyph glyph-name="uni013D" unicode="&#x013D;" d="M142 700L378 700L275 183L591 183L554 0L2 0L142 700M518 750L676 750L604 540L476 540L518 750Z"  horiz-adv-x="617" vert-adv-y="1000"  />

      
      <glyph glyph-name="uni013B" unicode="&#x013B;" d="M142 700L378 700L275 183L591 183L554 0L2 0L142 700M271-50Q313-50 334.50-68.50Q356-87 356-116Q356-136 347.50-155Q339-174 314-205L262-270L163-270L206-189Q173-173 173-137Q173-98 198.50-74Q224-50 271-50Z"  horiz-adv-x="617" vert-adv-y="1000"  />

      
      <glyph glyph-name="uni013F" unicode="&#x013F;" d="M142 700L378 700L275 183L591 183L554 0L2 0L142 700M510 327Q463 327 433 356.50Q403 386 403 432Q403 486 438.50 520.50Q474 555 526 555Q573 555 602.50 526Q632 497 632 450Q632 396 596.50 361.50Q561 327 510 327Z"  horiz-adv-x="617" vert-adv-y="1000"  />

      
      <glyph glyph-name="uni1E36" unicode="&#x1E36;" d="M142 700L378 700L275 183L591 183L554 0L2 0L142 700M255-226Q218-226 194.50-203.50Q171-181 171-146Q171-105 200.50-77.50Q230-50 269-50Q305-50 329-72Q353-94 353-128Q353-173 325-199.50Q297-226 255-226Z"  horiz-adv-x="617" vert-adv-y="1000"  />

      
      <glyph glyph-name="uni01C8" unicode="&#x01C8;" d="M142 700L378 700L275 183L591 183L554 0L2 0L142 700M577-204Q495-204 434-177L519-20Q543-33 569-33Q592-33 606-18Q620-3 627 30L730 547L956 547L854 38Q830-82 760.50-143Q691-204 577-204M867 591Q809 591 774 621.50Q739 652 739 698Q739 751 779 786Q819 821 883 821Q941 821 976 792.50Q1011 764 1011 718Q1011 661 971.50 626Q932 591 867 591Z"  horiz-adv-x="950" vert-adv-y="1000"  />

      
      <glyph glyph-name="uni1E3A" unicode="&#x1E3A;" d="M142 700L378 700L275 183L591 183L554 0L2 0L142 700M65-74L485-74L462-192L42-192L65-74Z"  horiz-adv-x="617" vert-adv-y="1000"  />

      
      <glyph glyph-name="uni0141" unicode="&#x0141;" d="M162 700L398 700L295 183L611 183L574 0L22 0L162 700M-35 301L476 631L536 537L25 207L-35 301Z"  horiz-adv-x="637" vert-adv-y="1000"  />

      
      <glyph glyph-name="uni4d" unicode="&#x4d;" d="M980 700L842 0L627 0L689 319L492 63L388 63L280 315L217 0L2 0L142 700L334 700L486 328L779 700L980 700Z"  horiz-adv-x="954" vert-adv-y="1000"  />

      
      <glyph glyph-name="uni1E42" unicode="&#x1E42;" d="M980 700L842 0L627 0L689 319L492 63L388 63L280 315L217 0L2 0L142 700L334 700L486 328L779 700L980 700M386-226Q349-226 325.50-203.50Q302-181 302-146Q302-105 331.50-77.50Q361-50 400-50Q436-50 460-72Q484-94 484-128Q484-173 456-199.50Q428-226 386-226Z"  horiz-adv-x="954" vert-adv-y="1000"  />

      
      <glyph glyph-name="uni4e" unicode="&#x4e;" d="M832 700L692 0L498 0L297 326L232 0L2 0L142 700L336 700L537 374L602 700L832 700Z"  horiz-adv-x="804" vert-adv-y="1000"  />

      
      <glyph glyph-name="uni01CA" unicode="&#x01CA;" d="M832 700L692 0L498 0L297 326L232 0L2 0L142 700L336 700L537 374L602 700L832 700M1000-16Q824-16 746 92L897 235Q944 169 1004 169Q1037 169 1058.50 189Q1080 209 1088 246L1143 522L905 522L941 700L1412 700L1324 260Q1295 112 1216 48Q1137-16 1000-16Z"  horiz-adv-x="1378" vert-adv-y="1000"  />

      
      <glyph glyph-name="uni0143" unicode="&#x0143;" d="M832 700L692 0L498 0L297 326L232 0L2 0L142 700L336 700L537 374L602 700L832 700M540 917L761 917L546 757L390 757L540 917Z"  horiz-adv-x="804" vert-adv-y="1000"  />

      
      <glyph glyph-name="uni0147" unicode="&#x0147;" d="M832 700L692 0L498 0L297 326L232 0L2 0L142 700L336 700L537 374L602 700L832 700M746 917L594 757L402 757L298 917L434 917L507 840L602 917L746 917Z"  horiz-adv-x="804" vert-adv-y="1000"  />

      
      <glyph glyph-name="uni0145" unicode="&#x0145;" d="M832 700L692 0L498 0L297 326L232 0L2 0L142 700L336 700L537 374L602 700L832 700M328-50Q370-50 391.50-68.50Q413-87 413-116Q413-136 404.50-155Q396-174 371-205L319-270L220-270L263-189Q230-173 230-137Q230-98 255.50-74Q281-50 328-50Z"  horiz-adv-x="804" vert-adv-y="1000"  />

      
      <glyph glyph-name="uni1E44" unicode="&#x1E44;" d="M832 700L692 0L498 0L297 326L232 0L2 0L142 700L336 700L537 374L602 700L832 700M510 747Q462 747 433 775Q404 803 404 847Q404 904 439.50 939.50Q475 975 528 975Q576 975 605 947Q634 919 634 875Q634 818 598.50 782.50Q563 747 510 747Z"  horiz-adv-x="804" vert-adv-y="1000"  />

      
      <glyph glyph-name="uni1E46" unicode="&#x1E46;" d="M832 700L692 0L498 0L297 326L232 0L2 0L142 700L336 700L537 374L602 700L832 700M312-226Q275-226 251.50-203.50Q228-181 228-146Q228-105 257.50-77.50Q287-50 326-50Q362-50 386-72Q410-94 410-128Q410-173 382-199.50Q354-226 312-226Z"  horiz-adv-x="804" vert-adv-y="1000"  />

      
      <glyph glyph-name="uni014A" unicode="&#x014A;" d="M832 700L712 100Q689-18 645-84.50Q601-151 537.50-177.50Q474-204 385-204Q334-204 281.50-189Q229-174 192-148L313 5Q349-20 390-20Q421-20 440-5Q459 10 470 46L297 326L232 0L2 0L142 700L336 700L537 375L602 700L832 700Z"  horiz-adv-x="804" vert-adv-y="1000"  />

      
      <glyph glyph-name="uni01CB" unicode="&#x01CB;" d="M832 700L692 0L498 0L297 326L232 0L2 0L142 700L336 700L537 374L602 700L832 700M764-204Q682-204 621-177L706-20Q730-33 756-33Q779-33 793-18Q807-3 814 30L917 547L1143 547L1041 38Q1017-82 947.50-143Q878-204 764-204M1054 591Q996 591 961 621.50Q926 652 926 698Q926 751 966 786Q1006 821 1070 821Q1128 821 1163 792.50Q1198 764 1198 718Q1198 661 1158.50 626Q1119 591 1054 591Z"  horiz-adv-x="1137" vert-adv-y="1000"  />

      
      <glyph glyph-name="uni1E48" unicode="&#x1E48;" d="M832 700L692 0L498 0L297 326L232 0L2 0L142 700L336 700L537 374L602 700L832 700M122-74L542-74L519-192L99-192L122-74Z"  horiz-adv-x="804" vert-adv-y="1000"  />

      
      <glyph glyph-name="unid1" unicode="&#xd1;" d="M832 700L692 0L498 0L297 326L232 0L2 0L142 700L336 700L537 374L602 700L832 700M587 747Q557 747 535.50 756.50Q514 766 489 784Q471 796 461.50 801Q452 806 441 806Q422 806 408.50 793Q395 780 390 757L283 757Q297 841 338 885.50Q379 930 441 930Q471 930 492.50 920.50Q514 911 540 893Q556 882 566.50 876.50Q577 871 588 871Q607 871 620 883.50Q633 896 638 917L745 917Q732 835 690.50 791Q649 747 587 747Z"  horiz-adv-x="804" vert-adv-y="1000"  />

      
      <glyph glyph-name="uni4f" unicode="&#x4f;" d="M396-16Q289-16 208.50 23.50Q128 63 84.50 134Q41 205 41 297Q41 419 97.50 514.50Q154 610 254.50 663Q355 716 482 716Q589 716 669.50 676.50Q750 637 793.50 566Q837 495 837 403Q837 281 780.50 185.50Q724 90 623.50 37Q523-16 396-16M416 175Q472 175 513.50 204Q555 233 577 282Q599 331 599 389Q599 451 562.50 488Q526 525 462 525Q406 525 364.50 496Q323 467 301 418Q279 369 279 311Q279 249 315.50 212Q352 175 416 175Z"  horiz-adv-x="848" vert-adv-y="1000"  />

      
      <glyph glyph-name="unid3" unicode="&#xd3;" d="M396-16Q289-16 208.50 23.50Q128 63 84.50 134Q41 205 41 297Q41 419 97.50 514.50Q154 610 254.50 663Q355 716 482 716Q589 716 669.50 676.50Q750 637 793.50 566Q837 495 837 403Q837 281 780.50 185.50Q724 90 623.50 37Q523-16 396-16M416 175Q472 175 513.50 204Q555 233 577 282Q599 331 599 389Q599 451 562.50 488Q526 525 462 525Q406 525 364.50 496Q323 467 301 418Q279 369 279 311Q279 249 315.50 212Q352 175 416 175M562 917L783 917L568 757L412 757L562 917Z"  horiz-adv-x="848" vert-adv-y="1000"  />

      
      <glyph glyph-name="uni014E" unicode="&#x014E;" d="M396-16Q289-16 208.50 23.50Q128 63 84.50 134Q41 205 41 297Q41 419 97.50 514.50Q154 610 254.50 663Q355 716 482 716Q589 716 669.50 676.50Q750 637 793.50 566Q837 495 837 403Q837 281 780.50 185.50Q724 90 623.50 37Q523-16 396-16M416 175Q472 175 513.50 204Q555 233 577 282Q599 331 599 389Q599 451 562.50 488Q526 525 462 525Q406 525 364.50 496Q323 467 301 418Q279 369 279 311Q279 249 315.50 212Q352 175 416 175M529 747Q446 747 394 788Q342 829 342 898Q342 911 343 917L474 917Q473 889 491.50 872.50Q510 856 542 856Q574 856 594.50 872.50Q615 889 622 917L761 917Q745 838 683 792.50Q621 747 529 747Z"  horiz-adv-x="848" vert-adv-y="1000"  />

      
      <glyph glyph-name="unid4" unicode="&#xd4;" d="M396-16Q289-16 208.50 23.50Q128 63 84.50 134Q41 205 41 297Q41 419 97.50 514.50Q154 610 254.50 663Q355 716 482 716Q589 716 669.50 676.50Q750 637 793.50 566Q837 495 837 403Q837 281 780.50 185.50Q724 90 623.50 37Q523-16 396-16M416 175Q472 175 513.50 204Q555 233 577 282Q599 331 599 389Q599 451 562.50 488Q526 525 462 525Q406 525 364.50 496Q323 467 301 418Q279 369 279 311Q279 249 315.50 212Q352 175 416 175M608 757L535 834L440 757L296 757L448 917L640 917L744 757L608 757Z"  horiz-adv-x="848" vert-adv-y="1000"  />

      
      <glyph glyph-name="uni1ED0" unicode="&#x1ED0;" d="M396-16Q289-16 208.50 23.50Q128 63 84.50 134Q41 205 41 297Q41 419 97.50 514.50Q154 610 254.50 663Q355 716 482 716Q589 716 669.50 676.50Q750 637 793.50 566Q837 495 837 403Q837 281 780.50 185.50Q724 90 623.50 37Q523-16 396-16M416 175Q472 175 513.50 204Q555 233 577 282Q599 331 599 389Q599 451 562.50 488Q526 525 462 525Q406 525 364.50 496Q323 467 301 418Q279 369 279 311Q279 249 315.50 212Q352 175 416 175M607 757L532 818L439 757L296 757L445 887L635 887L744 757L607 757M779 992L998 992L817 862L663 862L779 992Z"  horiz-adv-x="848" vert-adv-y="1000"  />

      
      <glyph glyph-name="uni1ED8" unicode="&#x1ED8;" d="M396-16Q289-16 208.50 23.50Q128 63 84.50 134Q41 205 41 297Q41 419 97.50 514.50Q154 610 254.50 663Q355 716 482 716Q589 716 669.50 676.50Q750 637 793.50 566Q837 495 837 403Q837 281 780.50 185.50Q724 90 623.50 37Q523-16 396-16M416 175Q472 175 513.50 204Q555 233 577 282Q599 331 599 389Q599 451 562.50 488Q526 525 462 525Q406 525 364.50 496Q323 467 301 418Q279 369 279 311Q279 249 315.50 212Q352 175 416 175M334-226Q297-226 273.50-203.50Q250-181 250-146Q250-105 279.50-77.50Q309-50 348-50Q384-50 408-72Q432-94 432-128Q432-173 404-199.50Q376-226 334-226M608 757L535 834L440 757L296 757L448 917L640 917L744 757L608 757Z"  horiz-adv-x="848" vert-adv-y="1000"  />

      
      <glyph glyph-name="uni1ED2" unicode="&#x1ED2;" d="M396-16Q289-16 208.50 23.50Q128 63 84.50 134Q41 205 41 297Q41 419 97.50 514.50Q154 610 254.50 663Q355 716 482 716Q589 716 669.50 676.50Q750 637 793.50 566Q837 495 837 403Q837 281 780.50 185.50Q724 90 623.50 37Q523-16 396-16M416 175Q472 175 513.50 204Q555 233 577 282Q599 331 599 389Q599 451 562.50 488Q526 525 462 525Q406 525 364.50 496Q323 467 301 418Q279 369 279 311Q279 249 315.50 212Q352 175 416 175M607 757L532 818L439 757L296 757L445 887L635 887L744 757L607 757M584 992L799 992L875 862L725 862L584 992Z"  horiz-adv-x="848" vert-adv-y="1000"  />

      
      <glyph glyph-name="uni1ED4" unicode="&#x1ED4;" d="M396-16Q289-16 208.50 23.50Q128 63 84.50 134Q41 205 41 297Q41 419 97.50 514.50Q154 610 254.50 663Q355 716 482 716Q589 716 669.50 676.50Q750 637 793.50 566Q837 495 837 403Q837 281 780.50 185.50Q724 90 623.50 37Q523-16 396-16M416 175Q472 175 513.50 204Q555 233 577 282Q599 331 599 389Q599 451 562.50 488Q526 525 462 525Q406 525 364.50 496Q323 467 301 418Q279 369 279 311Q279 249 315.50 212Q352 175 416 175M607 757L532 818L439 757L296 757L445 887L635 887L744 757L607 757M692 887Q732 905 732 929Q732 938 725 943.50Q718 949 707 949Q683 949 659 937L634 998Q678 1023 733 1023Q778 1023 805 1003Q832 983 832 948Q832 912 805 884.50Q778 857 738 842L692 887Z"  horiz-adv-x="848" vert-adv-y="1000"  />

      
      <glyph glyph-name="uni1ED6" unicode="&#x1ED6;" d="M396-16Q289-16 208.50 23.50Q128 63 84.50 134Q41 205 41 297Q41 419 97.50 514.50Q154 610 254.50 663Q355 716 482 716Q589 716 669.50 676.50Q750 637 793.50 566Q837 495 837 403Q837 281 780.50 185.50Q724 90 623.50 37Q523-16 396-16M416 175Q472 175 513.50 204Q555 233 577 282Q599 331 599 389Q599 451 562.50 488Q526 525 462 525Q406 525 364.50 496Q323 467 301 418Q279 369 279 311Q279 249 315.50 212Q352 175 416 175M607 757L532 818L439 757L296 757L445 887L635 887L744 757L607 757M637 922Q609 922 588.50 930.50Q568 939 543 954Q528 963 519 967.50Q510 972 501 972Q483 972 471 960.50Q459 949 455 931L345 931Q356 1002 396.50 1041Q437 1080 501 1080Q529 1080 549 1072Q569 1064 596 1048Q611 1039 620.50 1034.50Q630 1030 639 1030Q658 1030 670 1041.50Q682 1053 686 1071L793 1071Q783 1001 743 961.50Q703 922 637 922Z"  horiz-adv-x="848" vert-adv-y="1000"  />

      
      <glyph glyph-name="uni020C" unicode="&#x020C;" d="M396-16Q289-16 208.50 23.50Q128 63 84.50 134Q41 205 41 297Q41 419 97.50 514.50Q154 610 254.50 663Q355 716 482 716Q589 716 669.50 676.50Q750 637 793.50 566Q837 495 837 403Q837 281 780.50 185.50Q724 90 623.50 37Q523-16 396-16M416 175Q472 175 513.50 204Q555 233 577 282Q599 331 599 389Q599 451 562.50 488Q526 525 462 525Q406 525 364.50 496Q323 467 301 418Q279 369 279 311Q279 249 315.50 212Q352 175 416 175M268 917L453 917L473 757L333 757L268 917M502 917L687 917L707 757L567 757L502 917Z"  horiz-adv-x="848" vert-adv-y="1000"  />

      
      <glyph glyph-name="unid6" unicode="&#xd6;" d="M396-16Q289-16 208.50 23.50Q128 63 84.50 134Q41 205 41 297Q41 419 97.50 514.50Q154 610 254.50 663Q355 716 482 716Q589 716 669.50 676.50Q750 637 793.50 566Q837 495 837 403Q837 281 780.50 185.50Q724 90 623.50 37Q523-16 396-16M416 175Q472 175 513.50 204Q555 233 577 282Q599 331 599 389Q599 451 562.50 488Q526 525 462 525Q406 525 364.50 496Q323 467 301 418Q279 369 279 311Q279 249 315.50 212Q352 175 416 175M418 749Q381 749 357.50 770.50Q334 792 334 828Q334 871 362.50 898.50Q391 926 431 926Q468 926 491.50 904Q515 882 515 846Q515 803 486.50 776Q458 749 418 749M640 749Q603 749 579.50 770.50Q556 792 556 828Q556 871 584.50 898.50Q613 926 653 926Q690 926 713.50 904Q737 882 737 846Q737 803 708.50 776Q680 749 640 749Z"  horiz-adv-x="848" vert-adv-y="1000"  />

      
      <glyph glyph-name="uni022A" unicode="&#x022A;" d="M396-16Q289-16 208.50 23.50Q128 63 84.50 134Q41 205 41 297Q41 419 97.50 514.50Q154 610 254.50 663Q355 716 482 716Q589 716 669.50 676.50Q750 637 793.50 566Q837 495 837 403Q837 281 780.50 185.50Q724 90 623.50 37Q523-16 396-16M416 175Q472 175 513.50 204Q555 233 577 282Q599 331 599 389Q599 451 562.50 488Q526 525 462 525Q406 525 364.50 496Q323 467 301 418Q279 369 279 311Q279 249 315.50 212Q352 175 416 175M422 749Q386 749 364.50 769.50Q343 790 343 824Q343 865 370 890.50Q397 916 434 916Q469 916 491 895Q513 874 513 840Q513 799 486 774Q459 749 422 749M634 749Q598 749 576.50 769.50Q555 790 555 824Q555 865 582 890.50Q609 916 646 916Q681 916 703 895Q725 874 725 840Q725 799 698 774Q671 749 634 749M370 1061L790 1061L768 949L348 949L370 1061Z"  horiz-adv-x="848" vert-adv-y="1000"  />

      
      <glyph glyph-name="uni0230" unicode="&#x0230;" d="M396-16Q289-16 208.50 23.50Q128 63 84.50 134Q41 205 41 297Q41 419 97.50 514.50Q154 610 254.50 663Q355 716 482 716Q589 716 669.50 676.50Q750 637 793.50 566Q837 495 837 403Q837 281 780.50 185.50Q724 90 623.50 37Q523-16 396-16M416 175Q472 175 513.50 204Q555 233 577 282Q599 331 599 389Q599 451 562.50 488Q526 525 462 525Q406 525 364.50 496Q323 467 301 418Q279 369 279 311Q279 249 315.50 212Q352 175 416 175M528 749Q491 749 467.50 770.50Q444 792 444 828Q444 871 472.50 898.50Q501 926 541 926Q578 926 601.50 904Q625 882 625 846Q625 803 596.50 776Q568 749 528 749M372 1071L792 1071L770 959L350 959L372 1071Z"  horiz-adv-x="848" vert-adv-y="1000"  />

      
      <glyph glyph-name="uni1ECC" unicode="&#x1ECC;" d="M396-16Q289-16 208.50 23.50Q128 63 84.50 134Q41 205 41 297Q41 419 97.50 514.50Q154 610 254.50 663Q355 716 482 716Q589 716 669.50 676.50Q750 637 793.50 566Q837 495 837 403Q837 281 780.50 185.50Q724 90 623.50 37Q523-16 396-16M416 175Q472 175 513.50 204Q555 233 577 282Q599 331 599 389Q599 451 562.50 488Q526 525 462 525Q406 525 364.50 496Q323 467 301 418Q279 369 279 311Q279 249 315.50 212Q352 175 416 175M334-226Q297-226 273.50-203.50Q250-181 250-146Q250-105 279.50-77.50Q309-50 348-50Q384-50 408-72Q432-94 432-128Q432-173 404-199.50Q376-226 334-226Z"  horiz-adv-x="848" vert-adv-y="1000"  />

      
      <glyph glyph-name="unid2" unicode="&#xd2;" d="M396-16Q289-16 208.50 23.50Q128 63 84.50 134Q41 205 41 297Q41 419 97.50 514.50Q154 610 254.50 663Q355 716 482 716Q589 716 669.50 676.50Q750 637 793.50 566Q837 495 837 403Q837 281 780.50 185.50Q724 90 623.50 37Q523-16 396-16M416 175Q472 175 513.50 204Q555 233 577 282Q599 331 599 389Q599 451 562.50 488Q526 525 462 525Q406 525 364.50 496Q323 467 301 418Q279 369 279 311Q279 249 315.50 212Q352 175 416 175M310 917L525 917L625 757L475 757L310 917Z"  horiz-adv-x="848" vert-adv-y="1000"  />

      
      <glyph glyph-name="uni1ECE" unicode="&#x1ECE;" d="M396-16Q289-16 208.50 23.50Q128 63 84.50 134Q41 205 41 297Q41 419 97.50 514.50Q154 610 254.50 663Q355 716 482 716Q589 716 669.50 676.50Q750 637 793.50 566Q837 495 837 403Q837 281 780.50 185.50Q724 90 623.50 37Q523-16 396-16M416 175Q472 175 513.50 204Q555 233 577 282Q599 331 599 389Q599 451 562.50 488Q526 525 462 525Q406 525 364.50 496Q323 467 301 418Q279 369 279 311Q279 249 315.50 212Q352 175 416 175M509 812Q541 826 552.50 840.50Q564 855 564 872Q564 887 554.50 895.50Q545 904 528 904Q498 904 468 884L433 968Q489 1008 566 1008Q625 1008 659 979Q693 950 693 901Q693 801 568 747L509 812Z"  horiz-adv-x="848" vert-adv-y="1000"  />

      
      <glyph glyph-name="uni01A0" unicode="&#x01A0;" d="M915 749Q915 682 882 636Q849 590 791 570Q837 498 837 403Q837 281 780.50 185.50Q724 90 623.50 37Q523-16 396-16Q289-16 208.50 23.50Q128 63 84.50 134Q41 205 41 297Q41 419 97.50 514.50Q154 610 254.50 663Q355 716 482 716Q549 716 627 703Q677 695 695 695Q730 695 750 713.50Q770 732 770 761Q770 795 750 818L878 863Q915 816 915 749M416 175Q472 175 513.50 204Q555 233 577 282Q599 331 599 389Q599 451 562.50 488Q526 525 462 525Q406 525 364.50 496Q323 467 301 418Q279 369 279 311Q279 249 315.50 212Q352 175 416 175Z"  horiz-adv-x="848" vert-adv-y="1000"  />

      
      <glyph glyph-name="uni1EDA" unicode="&#x1EDA;" d="M915 749Q915 682 882 636Q849 590 791 570Q837 498 837 403Q837 281 780.50 185.50Q724 90 623.50 37Q523-16 396-16Q289-16 208.50 23.50Q128 63 84.50 134Q41 205 41 297Q41 419 97.50 514.50Q154 610 254.50 663Q355 716 482 716Q549 716 627 703Q677 695 695 695Q730 695 750 713.50Q770 732 770 761Q770 795 750 818L878 863Q915 816 915 749M416 175Q472 175 513.50 204Q555 233 577 282Q599 331 599 389Q599 451 562.50 488Q526 525 462 525Q406 525 364.50 496Q323 467 301 418Q279 369 279 311Q279 249 315.50 212Q352 175 416 175M562 917L783 917L568 757L412 757L562 917Z"  horiz-adv-x="848" vert-adv-y="1000"  />

      
      <glyph glyph-name="uni1EE2" unicode="&#x1EE2;" d="M915 749Q915 682 882 636Q849 590 791 570Q837 498 837 403Q837 281 780.50 185.50Q724 90 623.50 37Q523-16 396-16Q289-16 208.50 23.50Q128 63 84.50 134Q41 205 41 297Q41 419 97.50 514.50Q154 610 254.50 663Q355 716 482 716Q549 716 627 703Q677 695 695 695Q730 695 750 713.50Q770 732 770 761Q770 795 750 818L878 863Q915 816 915 749M416 175Q472 175 513.50 204Q555 233 577 282Q599 331 599 389Q599 451 562.50 488Q526 525 462 525Q406 525 364.50 496Q323 467 301 418Q279 369 279 311Q279 249 315.50 212Q352 175 416 175M334-226Q297-226 273.50-203.50Q250-181 250-146Q250-105 279.50-77.50Q309-50 348-50Q384-50 408-72Q432-94 432-128Q432-173 404-199.50Q376-226 334-226Z"  horiz-adv-x="848" vert-adv-y="1000"  />

      
      <glyph glyph-name="uni1EDC" unicode="&#x1EDC;" d="M915 749Q915 682 882 636Q849 590 791 570Q837 498 837 403Q837 281 780.50 185.50Q724 90 623.50 37Q523-16 396-16Q289-16 208.50 23.50Q128 63 84.50 134Q41 205 41 297Q41 419 97.50 514.50Q154 610 254.50 663Q355 716 482 716Q549 716 627 703Q677 695 695 695Q730 695 750 713.50Q770 732 770 761Q770 795 750 818L878 863Q915 816 915 749M416 175Q472 175 513.50 204Q555 233 577 282Q599 331 599 389Q599 451 562.50 488Q526 525 462 525Q406 525 364.50 496Q323 467 301 418Q279 369 279 311Q279 249 315.50 212Q352 175 416 175M310 917L525 917L625 757L475 757L310 917Z"  horiz-adv-x="848" vert-adv-y="1000"  />

      
      <glyph glyph-name="uni1EDE" unicode="&#x1EDE;" d="M915 749Q915 682 882 636Q849 590 791 570Q837 498 837 403Q837 281 780.50 185.50Q724 90 623.50 37Q523-16 396-16Q289-16 208.50 23.50Q128 63 84.50 134Q41 205 41 297Q41 419 97.50 514.50Q154 610 254.50 663Q355 716 482 716Q549 716 627 703Q677 695 695 695Q730 695 750 713.50Q770 732 770 761Q770 795 750 818L878 863Q915 816 915 749M416 175Q472 175 513.50 204Q555 233 577 282Q599 331 599 389Q599 451 562.50 488Q526 525 462 525Q406 525 364.50 496Q323 467 301 418Q279 369 279 311Q279 249 315.50 212Q352 175 416 175M509 812Q541 826 552.50 840.50Q564 855 564 872Q564 887 554.50 895.50Q545 904 528 904Q498 904 468 884L433 968Q489 1008 566 1008Q625 1008 659 979Q693 950 693 901Q693 801 568 747L509 812Z"  horiz-adv-x="848" vert-adv-y="1000"  />

      
      <glyph glyph-name="uni1EE0" unicode="&#x1EE0;" d="M915 749Q915 682 882 636Q849 590 791 570Q837 498 837 403Q837 281 780.50 185.50Q724 90 623.50 37Q523-16 396-16Q289-16 208.50 23.50Q128 63 84.50 134Q41 205 41 297Q41 419 97.50 514.50Q154 610 254.50 663Q355 716 482 716Q549 716 627 703Q677 695 695 695Q730 695 750 713.50Q770 732 770 761Q770 795 750 818L878 863Q915 816 915 749M416 175Q472 175 513.50 204Q555 233 577 282Q599 331 599 389Q599 451 562.50 488Q526 525 462 525Q406 525 364.50 496Q323 467 301 418Q279 369 279 311Q279 249 315.50 212Q352 175 416 175M609 747Q579 747 557.50 756.50Q536 766 511 784Q493 796 483.50 801Q474 806 463 806Q444 806 430.50 793Q417 780 412 757L305 757Q319 841 360 885.50Q401 930 463 930Q493 930 514.50 920.50Q536 911 562 893Q578 882 588.50 876.50Q599 871 610 871Q629 871 642 883.50Q655 896 660 917L767 917Q754 835 712.50 791Q671 747 609 747Z"  horiz-adv-x="848" vert-adv-y="1000"  />

      
      <glyph glyph-name="uni0150" unicode="&#x0150;" d="M396-16Q289-16 208.50 23.50Q128 63 84.50 134Q41 205 41 297Q41 419 97.50 514.50Q154 610 254.50 663Q355 716 482 716Q589 716 669.50 676.50Q750 637 793.50 566Q837 495 837 403Q837 281 780.50 185.50Q724 90 623.50 37Q523-16 396-16M416 175Q472 175 513.50 204Q555 233 577 282Q599 331 599 389Q599 451 562.50 488Q526 525 462 525Q406 525 364.50 496Q323 467 301 418Q279 369 279 311Q279 249 315.50 212Q352 175 416 175M396 917L595 917L480 757L326 757L396 917M630 917L829 917L714 757L560 757L630 917Z"  horiz-adv-x="848" vert-adv-y="1000"  />

      
      <glyph glyph-name="uni020E" unicode="&#x020E;" d="M396-16Q289-16 208.50 23.50Q128 63 84.50 134Q41 205 41 297Q41 419 97.50 514.50Q154 610 254.50 663Q355 716 482 716Q589 716 669.50 676.50Q750 637 793.50 566Q837 495 837 403Q837 281 780.50 185.50Q724 90 623.50 37Q523-16 396-16M416 175Q472 175 513.50 204Q555 233 577 282Q599 331 599 389Q599 451 562.50 488Q526 525 462 525Q406 525 364.50 496Q323 467 301 418Q279 369 279 311Q279 249 315.50 212Q352 175 416 175M311 757Q327 836 389 881.50Q451 927 544 927Q626 927 678 886Q730 845 730 776Q730 763 729 757L598 757Q599 785 580.50 801.50Q562 818 530 818Q498 818 477.50 801.50Q457 785 450 757L311 757Z"  horiz-adv-x="848" vert-adv-y="1000"  />

      
      <glyph glyph-name="uni014C" unicode="&#x014C;" d="M396-16Q289-16 208.50 23.50Q128 63 84.50 134Q41 205 41 297Q41 419 97.50 514.50Q154 610 254.50 663Q355 716 482 716Q589 716 669.50 676.50Q750 637 793.50 566Q837 495 837 403Q837 281 780.50 185.50Q724 90 623.50 37Q523-16 396-16M416 175Q472 175 513.50 204Q555 233 577 282Q599 331 599 389Q599 451 562.50 488Q526 525 462 525Q406 525 364.50 496Q323 467 301 418Q279 369 279 311Q279 249 315.50 212Q352 175 416 175M338 896L758 896L734 778L314 778L338 896Z"  horiz-adv-x="848" vert-adv-y="1000"  />

      
      <glyph glyph-name="uni1E52" unicode="&#x1E52;" d="M396-16Q289-16 208.50 23.50Q128 63 84.50 134Q41 205 41 297Q41 419 97.50 514.50Q154 610 254.50 663Q355 716 482 716Q589 716 669.50 676.50Q750 637 793.50 566Q837 495 837 403Q837 281 780.50 185.50Q724 90 623.50 37Q523-16 396-16M416 175Q472 175 513.50 204Q555 233 577 282Q599 331 599 389Q599 451 562.50 488Q526 525 462 525Q406 525 364.50 496Q323 467 301 418Q279 369 279 311Q279 249 315.50 212Q352 175 416 175M333 878L753 878L731 766L311 766L333 878M565 1070L784 1070L603 940L449 940L565 1070Z"  horiz-adv-x="848" vert-adv-y="1000"  />

      
      <glyph glyph-name="uni1E50" unicode="&#x1E50;" d="M396-16Q289-16 208.50 23.50Q128 63 84.50 134Q41 205 41 297Q41 419 97.50 514.50Q154 610 254.50 663Q355 716 482 716Q589 716 669.50 676.50Q750 637 793.50 566Q837 495 837 403Q837 281 780.50 185.50Q724 90 623.50 37Q523-16 396-16M416 175Q472 175 513.50 204Q555 233 577 282Q599 331 599 389Q599 451 562.50 488Q526 525 462 525Q406 525 364.50 496Q323 467 301 418Q279 369 279 311Q279 249 315.50 212Q352 175 416 175M334 878L754 878L732 766L312 766L334 878M371 1070L586 1070L662 940L512 940L371 1070Z"  horiz-adv-x="848" vert-adv-y="1000"  />

      
      <glyph glyph-name="uni01EA" unicode="&#x01EA;" d="M482 716Q589 716 669.50 676.50Q750 637 793.50 566Q837 495 837 403Q837 296 793 209Q749 122 669.50 65.50Q590 9 486-9Q416-21 387.50-45.50Q359-70 359-97Q359-116 371.50-127Q384-138 405-138Q433-138 465-124L474-217Q426-240 366-240Q299-240 259.50-211Q220-182 220-132Q220-60 299-7Q179 18 110 99Q41 180 41 297Q41 419 97.50 514.50Q154 610 254.50 663Q355 716 482 716M416 175Q472 175 513.50 204Q555 233 577 282Q599 331 599 389Q599 451 562.50 488Q526 525 462 525Q406 525 364.50 496Q323 467 301 418Q279 369 279 311Q279 249 315.50 212Q352 175 416 175Z"  horiz-adv-x="848" vert-adv-y="1000"  />

      
      <glyph glyph-name="unid8" unicode="&#xd8;" d="M396-16Q289-16 208.50 23.50Q128 63 84.50 134Q41 205 41 297Q41 419 97.50 514.50Q154 610 254.50 663Q355 716 482 716Q589 716 669.50 676.50Q750 637 793.50 566Q837 495 837 403Q837 281 780.50 185.50Q724 90 623.50 37Q523-16 396-16M416 175Q472 175 513.50 204Q555 233 577 282Q599 331 599 389Q599 451 562.50 488Q526 525 462 525Q406 525 364.50 496Q323 467 301 418Q279 369 279 311Q279 249 315.50 212Q352 175 416 175M750 770L886 770L128-70L-8-70L750 770Z"  horiz-adv-x="848" vert-adv-y="1000"  />

      
      <glyph glyph-name="uni01FE" unicode="&#x01FE;" d="M396-16Q289-16 208.50 23.50Q128 63 84.50 134Q41 205 41 297Q41 419 97.50 514.50Q154 610 254.50 663Q355 716 482 716Q589 716 669.50 676.50Q750 637 793.50 566Q837 495 837 403Q837 281 780.50 185.50Q724 90 623.50 37Q523-16 396-16M416 175Q472 175 513.50 204Q555 233 577 282Q599 331 599 389Q599 451 562.50 488Q526 525 462 525Q406 525 364.50 496Q323 467 301 418Q279 369 279 311Q279 249 315.50 212Q352 175 416 175M750 770L886 770L128-70L-8-70L750 770M562 917L783 917L568 757L412 757L562 917Z"  horiz-adv-x="848" vert-adv-y="1000"  />

      
      <glyph glyph-name="unid5" unicode="&#xd5;" d="M396-16Q289-16 208.50 23.50Q128 63 84.50 134Q41 205 41 297Q41 419 97.50 514.50Q154 610 254.50 663Q355 716 482 716Q589 716 669.50 676.50Q750 637 793.50 566Q837 495 837 403Q837 281 780.50 185.50Q724 90 623.50 37Q523-16 396-16M416 175Q472 175 513.50 204Q555 233 577 282Q599 331 599 389Q599 451 562.50 488Q526 525 462 525Q406 525 364.50 496Q323 467 301 418Q279 369 279 311Q279 249 315.50 212Q352 175 416 175M609 747Q579 747 557.50 756.50Q536 766 511 784Q493 796 483.50 801Q474 806 463 806Q444 806 430.50 793Q417 780 412 757L305 757Q319 841 360 885.50Q401 930 463 930Q493 930 514.50 920.50Q536 911 562 893Q578 882 588.50 876.50Q599 871 610 871Q629 871 642 883.50Q655 896 660 917L767 917Q754 835 712.50 791Q671 747 609 747Z"  horiz-adv-x="848" vert-adv-y="1000"  />

      
      <glyph glyph-name="uni1E4C" unicode="&#x1E4C;" d="M396-16Q289-16 208.50 23.50Q128 63 84.50 134Q41 205 41 297Q41 419 97.50 514.50Q154 610 254.50 663Q355 716 482 716Q589 716 669.50 676.50Q750 637 793.50 566Q837 495 837 403Q837 281 780.50 185.50Q724 90 623.50 37Q523-16 396-16M416 175Q472 175 513.50 204Q555 233 577 282Q599 331 599 389Q599 451 562.50 488Q526 525 462 525Q406 525 364.50 496Q323 467 301 418Q279 369 279 311Q279 249 315.50 212Q352 175 416 175M601 747Q573 747 552.50 755.50Q532 764 507 779Q492 788 483 792.50Q474 797 465 797Q447 797 435 785.50Q423 774 419 756L309 756Q320 827 360.50 866Q401 905 465 905Q493 905 513 897Q533 889 560 873Q575 864 584.50 859.50Q594 855 603 855Q622 855 634 866.50Q646 878 650 896L757 896Q747 826 707 786.50Q667 747 601 747M565 1070L784 1070L603 940L449 940L565 1070Z"  horiz-adv-x="848" vert-adv-y="1000"  />

      
      <glyph glyph-name="uni1E4E" unicode="&#x1E4E;" d="M396-16Q289-16 208.50 23.50Q128 63 84.50 134Q41 205 41 297Q41 419 97.50 514.50Q154 610 254.50 663Q355 716 482 716Q589 716 669.50 676.50Q750 637 793.50 566Q837 495 837 403Q837 281 780.50 185.50Q724 90 623.50 37Q523-16 396-16M416 175Q472 175 513.50 204Q555 233 577 282Q599 331 599 389Q599 451 562.50 488Q526 525 462 525Q406 525 364.50 496Q323 467 301 418Q279 369 279 311Q279 249 315.50 212Q352 175 416 175M601 747Q573 747 552.50 755.50Q532 764 507 779Q492 788 483 792.50Q474 797 465 797Q447 797 435 785.50Q423 774 419 756L309 756Q320 827 360.50 866Q401 905 465 905Q493 905 513 897Q533 889 560 873Q575 864 584.50 859.50Q594 855 603 855Q622 855 634 866.50Q646 878 650 896L757 896Q747 826 707 786.50Q667 747 601 747M459 932Q423 932 401.50 952.50Q380 973 380 1007Q380 1048 407 1073.50Q434 1099 471 1099Q506 1099 528 1078Q550 1057 550 1023Q550 982 523 957Q496 932 459 932M671 932Q635 932 613.50 952.50Q592 973 592 1007Q592 1048 619 1073.50Q646 1099 683 1099Q718 1099 740 1078Q762 1057 762 1023Q762 982 735 957Q708 932 671 932Z"  horiz-adv-x="848" vert-adv-y="1000"  />

      
      <glyph glyph-name="uni022C" unicode="&#x022C;" d="M396-16Q289-16 208.50 23.50Q128 63 84.50 134Q41 205 41 297Q41 419 97.50 514.50Q154 610 254.50 663Q355 716 482 716Q589 716 669.50 676.50Q750 637 793.50 566Q837 495 837 403Q837 281 780.50 185.50Q724 90 623.50 37Q523-16 396-16M416 175Q472 175 513.50 204Q555 233 577 282Q599 331 599 389Q599 451 562.50 488Q526 525 462 525Q406 525 364.50 496Q323 467 301 418Q279 369 279 311Q279 249 315.50 212Q352 175 416 175M602 747Q574 747 553.50 755.50Q533 764 508 779Q493 788 484 792.50Q475 797 466 797Q448 797 436 785.50Q424 774 420 756L310 756Q321 827 361.50 866Q402 905 466 905Q494 905 514 897Q534 889 561 873Q576 864 585.50 859.50Q595 855 604 855Q623 855 635 866.50Q647 878 651 896L758 896Q748 826 708 786.50Q668 747 602 747M371 1061L791 1061L769 949L349 949L371 1061Z"  horiz-adv-x="848" vert-adv-y="1000"  />

      
      <glyph glyph-name="uni0152" unicode="&#x0152;" d="M814 522L798 440L1094 440L1060 270L763 270L745 178L1096 178L1060 0L398 0Q288 0 207.50 36Q127 72 84 139Q41 206 41 297Q41 418 97 509.50Q153 601 252.50 650.50Q352 700 479 700L1187 700L1151 522L814 522M515 184L581 516L471 516Q380 516 329.50 458.50Q279 401 279 311Q279 250 316.50 217Q354 184 425 184L515 184Z"  horiz-adv-x="1149" vert-adv-y="1000"  />

      
      <glyph glyph-name="uni50" unicode="&#x50;" d="M453 700Q593 700 670 639Q747 578 747 468Q747 380 703.50 313Q660 246 579.50 209Q499 172 393 172L272 172L238 0L2 0L142 700L453 700M405 354Q454 354 481 378.50Q508 403 508 447Q508 518 420 518L341 518L308 354L405 354Z"  horiz-adv-x="743" vert-adv-y="1000"  />

      
      <glyph glyph-name="unide" unicode="&#xde;" d="M442 633Q580 633 656.50 572Q733 511 733 401Q733 313 689.50 246Q646 179 565.50 142Q485 105 379 105L259 105L238 0L2 0L142 700L378 700L365 633L442 633M391 287Q440 287 467 311.50Q494 336 494 380Q494 451 406 451L328 451L295 287L391 287Z"  horiz-adv-x="743" vert-adv-y="1000"  />

      
      <glyph glyph-name="uni51" unicode="&#x51;" d="M605-13Q631-13 658.50-1.50Q686 10 709 30L794-107Q756-142 701.50-159.50Q647-177 583-177Q478-177 402-134Q326-91 277-2Q166 27 103.50 106.50Q41 186 41 297Q41 419 97.50 514.50Q154 610 254.50 663Q355 716 482 716Q589 716 669.50 676.50Q750 637 793.50 566Q837 495 837 403Q837 307 801.50 227Q766 147 701.50 90.50Q637 34 550 7Q569-13 605-13M462 525Q406 525 364.50 496Q323 467 301 418Q279 369 279 311Q279 249 315.50 212Q352 175 416 175Q472 175 513.50 204Q555 233 577 282Q599 331 599 389Q599 451 562.50 488Q526 525 462 525Z"  horiz-adv-x="848" vert-adv-y="1000"  />

      
      <glyph glyph-name="uni52" unicode="&#x52;" d="M747 470Q747 377 697.50 307.50Q648 238 558 204L675 0L430 0L331 176L273 176L238 0L2 0L142 700L456 700Q594 700 670.50 639.50Q747 579 747 470M508 447Q508 518 420 518L341 518L308 354L405 354Q454 354 481 378.50Q508 403 508 447Z"  horiz-adv-x="745" vert-adv-y="1000"  />

      
      <glyph glyph-name="uni0154" unicode="&#x0154;" d="M747 470Q747 377 697.50 307.50Q648 238 558 204L675 0L430 0L331 176L273 176L238 0L2 0L142 700L456 700Q594 700 670.50 639.50Q747 579 747 470M508 447Q508 518 420 518L341 518L308 354L405 354Q454 354 481 378.50Q508 403 508 447M517 917L738 917L523 757L367 757L517 917Z"  horiz-adv-x="745" vert-adv-y="1000"  />

      
      <glyph glyph-name="uni0158" unicode="&#x0158;" d="M747 470Q747 377 697.50 307.50Q648 238 558 204L675 0L430 0L331 176L273 176L238 0L2 0L142 700L456 700Q594 700 670.50 639.50Q747 579 747 470M508 447Q508 518 420 518L341 518L308 354L405 354Q454 354 481 378.50Q508 403 508 447M723 917L571 757L379 757L275 917L411 917L484 840L579 917L723 917Z"  horiz-adv-x="745" vert-adv-y="1000"  />

      
      <glyph glyph-name="uni0156" unicode="&#x0156;" d="M747 470Q747 377 697.50 307.50Q648 238 558 204L675 0L430 0L331 176L273 176L238 0L2 0L142 700L456 700Q594 700 670.50 639.50Q747 579 747 470M508 447Q508 518 420 518L341 518L308 354L405 354Q454 354 481 378.50Q508 403 508 447M305-50Q347-50 368.50-68.50Q390-87 390-116Q390-136 381.50-155Q373-174 348-205L296-270L197-270L240-189Q207-173 207-137Q207-98 232.50-74Q258-50 305-50Z"  horiz-adv-x="745" vert-adv-y="1000"  />

      
      <glyph glyph-name="uni0210" unicode="&#x0210;" d="M747 470Q747 377 697.50 307.50Q648 238 558 204L675 0L430 0L331 176L273 176L238 0L2 0L142 700L456 700Q594 700 670.50 639.50Q747 579 747 470M508 447Q508 518 420 518L341 518L308 354L405 354Q454 354 481 378.50Q508 403 508 447M223 917L408 917L428 757L288 757L223 917M457 917L642 917L662 757L522 757L457 917Z"  horiz-adv-x="745" vert-adv-y="1000"  />

      
      <glyph glyph-name="uni1E5A" unicode="&#x1E5A;" d="M747 470Q747 377 697.50 307.50Q648 238 558 204L675 0L430 0L331 176L273 176L238 0L2 0L142 700L456 700Q594 700 670.50 639.50Q747 579 747 470M508 447Q508 518 420 518L341 518L308 354L405 354Q454 354 481 378.50Q508 403 508 447M289-226Q252-226 228.50-203.50Q205-181 205-146Q205-105 234.50-77.50Q264-50 303-50Q339-50 363-72Q387-94 387-128Q387-173 359-199.50Q331-226 289-226Z"  horiz-adv-x="745" vert-adv-y="1000"  />

      
      <glyph glyph-name="uni0212" unicode="&#x0212;" d="M747 470Q747 377 697.50 307.50Q648 238 558 204L675 0L430 0L331 176L273 176L238 0L2 0L142 700L456 700Q594 700 670.50 639.50Q747 579 747 470M508 447Q508 518 420 518L341 518L308 354L405 354Q454 354 481 378.50Q508 403 508 447M266 757Q282 836 344 881.50Q406 927 499 927Q581 927 633 886Q685 845 685 776Q685 763 684 757L553 757Q554 785 535.50 801.50Q517 818 485 818Q453 818 432.50 801.50Q412 785 405 757L266 757Z"  horiz-adv-x="745" vert-adv-y="1000"  />

      
      <glyph glyph-name="uni1E5E" unicode="&#x1E5E;" d="M747 470Q747 377 697.50 307.50Q648 238 558 204L675 0L430 0L331 176L273 176L238 0L2 0L142 700L456 700Q594 700 670.50 639.50Q747 579 747 470M508 447Q508 518 420 518L341 518L308 354L405 354Q454 354 481 378.50Q508 403 508 447M99-74L519-74L496-192L76-192L99-74Z"  horiz-adv-x="745" vert-adv-y="1000"  />

      
      <glyph glyph-name="uni53" unicode="&#x53;" d="M280-16Q189-16 109 3.50Q29 23-23 55L68 229Q181 164 304 164Q349 164 373 175Q397 186 397 205Q397 223 372.50 234Q348 245 295 258Q225 276 179 294.50Q133 313 98.50 351.50Q64 390 64 453Q64 532 106.50 591.50Q149 651 229 683.50Q309 716 418 716Q496 716 563.50 700.50Q631 685 680 656L595 484Q554 510 504.50 523Q455 536 403 536Q354 536 327 522Q300 508 300 489Q300 470 324.50 459Q349 448 405 435Q473 419 519.50 401Q566 383 600 345Q634 307 634 245Q634 167 591 108Q548 49 468 16.50Q388-16 280-16Z"  horiz-adv-x="657" vert-adv-y="1000"  />

      
      <glyph glyph-name="uni015A" unicode="&#x015A;" d="M280-16Q189-16 109 3.50Q29 23-23 55L68 229Q181 164 304 164Q349 164 373 175Q397 186 397 205Q397 223 372.50 234Q348 245 295 258Q225 276 179 294.50Q133 313 98.50 351.50Q64 390 64 453Q64 532 106.50 591.50Q149 651 229 683.50Q309 716 418 716Q496 716 563.50 700.50Q631 685 680 656L595 484Q554 510 504.50 523Q455 536 403 536Q354 536 327 522Q300 508 300 489Q300 470 324.50 459Q349 448 405 435Q473 419 519.50 401Q566 383 600 345Q634 307 634 245Q634 167 591 108Q548 49 468 16.50Q388-16 280-16M467 917L688 917L473 757L317 757L467 917Z"  horiz-adv-x="657" vert-adv-y="1000"  />

      
      <glyph glyph-name="uni1E64" unicode="&#x1E64;" d="M280-16Q189-16 109 3.50Q29 23-23 55L68 229Q181 164 304 164Q349 164 373 175Q397 186 397 205Q397 223 372.50 234Q348 245 295 258Q225 276 179 294.50Q133 313 98.50 351.50Q64 390 64 453Q64 532 106.50 591.50Q149 651 229 683.50Q309 716 418 716Q496 716 563.50 700.50Q631 685 680 656L595 484Q554 510 504.50 523Q455 536 403 536Q354 536 327 522Q300 508 300 489Q300 470 324.50 459Q349 448 405 435Q473 419 519.50 401Q566 383 600 345Q634 307 634 245Q634 167 591 108Q548 49 468 16.50Q388-16 280-16M434 887L653 887L472 757L318 757L434 887M471 932Q434 932 410.50 953.50Q387 975 387 1011Q387 1054 415.50 1081.50Q444 1109 484 1109Q521 1109 544.50 1087Q568 1065 568 1029Q568 986 539.50 959Q511 932 471 932Z"  horiz-adv-x="657" vert-adv-y="1000"  />

      
      <glyph glyph-name="uniA78B" unicode="&#xA78B;" d="M140 701L372 701L261 296L59 296L140 701Z"  horiz-adv-x="342" vert-adv-y="1000"  />

      
      <glyph glyph-name="uni0160" unicode="&#x0160;" d="M280-16Q189-16 109 3.50Q29 23-23 55L68 229Q181 164 304 164Q349 164 373 175Q397 186 397 205Q397 223 372.50 234Q348 245 295 258Q225 276 179 294.50Q133 313 98.50 351.50Q64 390 64 453Q64 532 106.50 591.50Q149 651 229 683.50Q309 716 418 716Q496 716 563.50 700.50Q631 685 680 656L595 484Q554 510 504.50 523Q455 536 403 536Q354 536 327 522Q300 508 300 489Q300 470 324.50 459Q349 448 405 435Q473 419 519.50 401Q566 383 600 345Q634 307 634 245Q634 167 591 108Q548 49 468 16.50Q388-16 280-16M673 917L521 757L329 757L225 917L361 917L434 840L529 917L673 917Z"  horiz-adv-x="657" vert-adv-y="1000"  />

      
      <glyph glyph-name="uni1E66" unicode="&#x1E66;" d="M280-16Q189-16 109 3.50Q29 23-23 55L68 229Q181 164 304 164Q349 164 373 175Q397 186 397 205Q397 223 372.50 234Q348 245 295 258Q225 276 179 294.50Q133 313 98.50 351.50Q64 390 64 453Q64 532 106.50 591.50Q149 651 229 683.50Q309 716 418 716Q496 716 563.50 700.50Q631 685 680 656L595 484Q554 510 504.50 523Q455 536 403 536Q354 536 327 522Q300 508 300 489Q300 470 324.50 459Q349 448 405 435Q473 419 519.50 401Q566 383 600 345Q634 307 634 245Q634 167 591 108Q548 49 468 16.50Q388-16 280-16M669 887L520 757L330 757L221 887L358 887L433 826L526 887L669 887M466 909Q429 909 405.50 930.50Q382 952 382 988Q382 1031 410.50 1058.50Q439 1086 479 1086Q516 1086 539.50 1064Q563 1042 563 1006Q563 963 534.50 936Q506 909 466 909Z"  horiz-adv-x="657" vert-adv-y="1000"  />

      
      <glyph glyph-name="uni015E" unicode="&#x015E;" d="M280-16Q189-16 109 3.50Q29 23-23 55L68 229Q181 164 304 164Q349 164 373 175Q397 186 397 205Q397 223 372.50 234Q348 245 295 258Q225 276 179 294.50Q133 313 98.50 351.50Q64 390 64 453Q64 532 106.50 591.50Q149 651 229 683.50Q309 716 418 716Q496 716 563.50 700.50Q631 685 680 656L595 484Q554 510 504.50 523Q455 536 403 536Q354 536 327 522Q300 508 300 489Q300 470 324.50 459Q349 448 405 435Q473 419 519.50 401Q566 383 600 345Q634 307 634 245Q634 167 591 108Q548 49 468 16.50Q388-16 280-16M195-240Q166-240 138-234Q110-228 91-219L136-136Q164-148 199-148Q223-148 234.50-141Q246-134 246-122Q246-104 212-104L168-104L218 10L334 10L308-52Q343-58 360.50-77Q378-96 378-122Q378-127 376-137Q366-185 318-212.50Q270-240 195-240Z"  horiz-adv-x="657" vert-adv-y="1000"  />

      
      <glyph glyph-name="uni015C" unicode="&#x015C;" d="M280-16Q189-16 109 3.50Q29 23-23 55L68 229Q181 164 304 164Q349 164 373 175Q397 186 397 205Q397 223 372.50 234Q348 245 295 258Q225 276 179 294.50Q133 313 98.50 351.50Q64 390 64 453Q64 532 106.50 591.50Q149 651 229 683.50Q309 716 418 716Q496 716 563.50 700.50Q631 685 680 656L595 484Q554 510 504.50 523Q455 536 403 536Q354 536 327 522Q300 508 300 489Q300 470 324.50 459Q349 448 405 435Q473 419 519.50 401Q566 383 600 345Q634 307 634 245Q634 167 591 108Q548 49 468 16.50Q388-16 280-16M513 757L440 834L345 757L201 757L353 917L545 917L649 757L513 757Z"  horiz-adv-x="657" vert-adv-y="1000"  />

      
      <glyph glyph-name="uni0218" unicode="&#x0218;" d="M280-16Q189-16 109 3.50Q29 23-23 55L68 229Q181 164 304 164Q349 164 373 175Q397 186 397 205Q397 223 372.50 234Q348 245 295 258Q225 276 179 294.50Q133 313 98.50 351.50Q64 390 64 453Q64 532 106.50 591.50Q149 651 229 683.50Q309 716 418 716Q496 716 563.50 700.50Q631 685 680 656L595 484Q554 510 504.50 523Q455 536 403 536Q354 536 327 522Q300 508 300 489Q300 470 324.50 459Q349 448 405 435Q473 419 519.50 401Q566 383 600 345Q634 307 634 245Q634 167 591 108Q548 49 468 16.50Q388-16 280-16M255-50Q297-50 318.50-68.50Q340-87 340-116Q340-136 331.50-155Q323-174 298-205L246-270L147-270L190-189Q157-173 157-137Q157-98 182.50-74Q208-50 255-50Z"  horiz-adv-x="657" vert-adv-y="1000"  />

      
      <glyph glyph-name="uni1E60" unicode="&#x1E60;" d="M280-16Q189-16 109 3.50Q29 23-23 55L68 229Q181 164 304 164Q349 164 373 175Q397 186 397 205Q397 223 372.50 234Q348 245 295 258Q225 276 179 294.50Q133 313 98.50 351.50Q64 390 64 453Q64 532 106.50 591.50Q149 651 229 683.50Q309 716 418 716Q496 716 563.50 700.50Q631 685 680 656L595 484Q554 510 504.50 523Q455 536 403 536Q354 536 327 522Q300 508 300 489Q300 470 324.50 459Q349 448 405 435Q473 419 519.50 401Q566 383 600 345Q634 307 634 245Q634 167 591 108Q548 49 468 16.50Q388-16 280-16M437 747Q389 747 360 775Q331 803 331 847Q331 904 366.50 939.50Q402 975 455 975Q503 975 532 947Q561 919 561 875Q561 818 525.50 782.50Q490 747 437 747Z"  horiz-adv-x="657" vert-adv-y="1000"  />

      
      <glyph glyph-name="uni1E62" unicode="&#x1E62;" d="M280-16Q189-16 109 3.50Q29 23-23 55L68 229Q181 164 304 164Q349 164 373 175Q397 186 397 205Q397 223 372.50 234Q348 245 295 258Q225 276 179 294.50Q133 313 98.50 351.50Q64 390 64 453Q64 532 106.50 591.50Q149 651 229 683.50Q309 716 418 716Q496 716 563.50 700.50Q631 685 680 656L595 484Q554 510 504.50 523Q455 536 403 536Q354 536 327 522Q300 508 300 489Q300 470 324.50 459Q349 448 405 435Q473 419 519.50 401Q566 383 600 345Q634 307 634 245Q634 167 591 108Q548 49 468 16.50Q388-16 280-16M239-226Q202-226 178.50-203.50Q155-181 155-146Q155-105 184.50-77.50Q214-50 253-50Q289-50 313-72Q337-94 337-128Q337-173 309-199.50Q281-226 239-226Z"  horiz-adv-x="657" vert-adv-y="1000"  />

      
      <glyph glyph-name="uni1E68" unicode="&#x1E68;" d="M280-16Q189-16 109 3.50Q29 23-23 55L68 229Q181 164 304 164Q349 164 373 175Q397 186 397 205Q397 223 372.50 234Q348 245 295 258Q225 276 179 294.50Q133 313 98.50 351.50Q64 390 64 453Q64 532 106.50 591.50Q149 651 229 683.50Q309 716 418 716Q496 716 563.50 700.50Q631 685 680 656L595 484Q554 510 504.50 523Q455 536 403 536Q354 536 327 522Q300 508 300 489Q300 470 324.50 459Q349 448 405 435Q473 419 519.50 401Q566 383 600 345Q634 307 634 245Q634 167 591 108Q548 49 468 16.50Q388-16 280-16M239-226Q202-226 178.50-203.50Q155-181 155-146Q155-105 184.50-77.50Q214-50 253-50Q289-50 313-72Q337-94 337-128Q337-173 309-199.50Q281-226 239-226M437 747Q389 747 360 775Q331 803 331 847Q331 904 366.50 939.50Q402 975 455 975Q503 975 532 947Q561 919 561 875Q561 818 525.50 782.50Q490 747 437 747Z"  horiz-adv-x="657" vert-adv-y="1000"  />

      
      <glyph glyph-name="uni1E9E" unicode="&#x1E9E;" d="M640 411Q696 387 728 341Q760 295 760 234Q760 163 722.50 106Q685 49 616 16.50Q547-16 456-16Q412-16 365.50-8.50Q319-1 290 10L348 180Q390 164 445 164Q481 164 501.50 180.50Q522 197 522 224Q522 249 503 263.50Q484 278 451 278Q421 278 394 269L373 365L543 529Q516 536 484 536Q410 536 367 499.50Q324 463 309 387L232 0L-4 0L75 395Q108 558 213.50 637Q319 716 504 716Q571 716 647 698Q723 680 773 650L746 515L640 411Z"  horiz-adv-x="798" vert-adv-y="1000"  />

      
      <glyph glyph-name="uni018F" unicode="&#x018F;" d="M440 716Q547 716 630 675.50Q713 635 758.50 562Q804 489 804 393Q804 269 750 176Q696 83 602.50 33.50Q509-16 393-16Q288-16 207.50 22.50Q127 61 82.50 129Q38 197 38 284Q38 335 54 398L567 398Q565 457 526 491Q487 525 422 525Q316 525 228 451L119 604Q184 659 267 687.50Q350 716 440 716M400 157Q456 157 491.50 187.50Q527 218 546 268L270 268Q270 221 302.50 189Q335 157 400 157Z"  horiz-adv-x="818" vert-adv-y="1000"  />

      
      <glyph glyph-name="uni54" unicode="&#x54;" d="M257 517L52 517L89 700L735 700L698 517L493 517L390 0L154 0L257 517Z"  horiz-adv-x="654" vert-adv-y="1000"  />

      
      <glyph glyph-name="uni0166" unicode="&#x0166;" d="M257 517L52 517L89 700L735 700L698 517L493 517L390 0L154 0L257 517M114 383L584 383L557 247L87 247L114 383Z"  horiz-adv-x="654" vert-adv-y="1000"  />

      
      <glyph glyph-name="uni0164" unicode="&#x0164;" d="M257 517L52 517L89 700L735 700L698 517L493 517L390 0L154 0L257 517M671 917L519 757L327 757L223 917L359 917L432 840L527 917L671 917Z"  horiz-adv-x="654" vert-adv-y="1000"  />

      
      <glyph glyph-name="uni0162" unicode="&#x0162;" d="M257 517L52 517L89 700L735 700L698 517L493 517L390 0L154 0L257 517M193-240Q164-240 136-234Q108-228 89-219L134-136Q162-148 197-148Q221-148 232.50-141Q244-134 244-122Q244-104 210-104L166-104L216 10L332 10L306-52Q341-58 358.50-77Q376-96 376-122Q376-127 374-137Q364-185 316-212.50Q268-240 193-240Z"  horiz-adv-x="654" vert-adv-y="1000"  />

      
      <glyph glyph-name="uni021A" unicode="&#x021A;" d="M257 517L52 517L89 700L735 700L698 517L493 517L390 0L154 0L257 517M253-50Q295-50 316.50-68.50Q338-87 338-116Q338-136 329.50-155Q321-174 296-205L244-270L145-270L188-189Q155-173 155-137Q155-98 180.50-74Q206-50 253-50Z"  horiz-adv-x="654" vert-adv-y="1000"  />

      
      <glyph glyph-name="uni1E6C" unicode="&#x1E6C;" d="M257 517L52 517L89 700L735 700L698 517L493 517L390 0L154 0L257 517M237-226Q200-226 176.50-203.50Q153-181 153-146Q153-105 182.50-77.50Q212-50 251-50Q287-50 311-72Q335-94 335-128Q335-173 307-199.50Q279-226 237-226Z"  horiz-adv-x="654" vert-adv-y="1000"  />

      
      <glyph glyph-name="uni1E6E" unicode="&#x1E6E;" d="M257 517L52 517L89 700L735 700L698 517L493 517L390 0L154 0L257 517M47-74L467-74L444-192L24-192L47-74Z"  horiz-adv-x="654" vert-adv-y="1000"  />

      
      <glyph glyph-name="uni55" unicode="&#x55;" d="M355-16Q261-16 192.50 15.50Q124 47 87.50 105Q51 163 51 241Q51 273 59 315L136 700L372 700L296 319Q290 291 290 268Q290 221 314 198Q338 175 384 175Q436 175 465 208Q494 241 510 319L586 700L818 700L739 305Q707 146 611 65Q515-16 355-16Z"  horiz-adv-x="784" vert-adv-y="1000"  />

      
      <glyph glyph-name="unida" unicode="&#xda;" d="M355-16Q261-16 192.50 15.50Q124 47 87.50 105Q51 163 51 241Q51 273 59 315L136 700L372 700L296 319Q290 291 290 268Q290 221 314 198Q338 175 384 175Q436 175 465 208Q494 241 510 319L586 700L818 700L739 305Q707 146 611 65Q515-16 355-16M532 917L753 917L538 757L382 757L532 917Z"  horiz-adv-x="784" vert-adv-y="1000"  />

      
      <glyph glyph-name="uni016C" unicode="&#x016C;" d="M355-16Q261-16 192.50 15.50Q124 47 87.50 105Q51 163 51 241Q51 273 59 315L136 700L372 700L296 319Q290 291 290 268Q290 221 314 198Q338 175 384 175Q436 175 465 208Q494 241 510 319L586 700L818 700L739 305Q707 146 611 65Q515-16 355-16M499 747Q416 747 364 788Q312 829 312 898Q312 911 313 917L444 917Q443 889 461.50 872.50Q480 856 512 856Q544 856 564.50 872.50Q585 889 592 917L731 917Q715 838 653 792.50Q591 747 499 747Z"  horiz-adv-x="784" vert-adv-y="1000"  />

      
      <glyph glyph-name="uni01D3" unicode="&#x01D3;" d="M355-16Q261-16 192.50 15.50Q124 47 87.50 105Q51 163 51 241Q51 273 59 315L136 700L372 700L296 319Q290 291 290 268Q290 221 314 198Q338 175 384 175Q436 175 465 208Q494 241 510 319L586 700L818 700L739 305Q707 146 611 65Q515-16 355-16M738 917L586 757L394 757L290 917L426 917L499 840L594 917L738 917Z"  horiz-adv-x="784" vert-adv-y="1000"  />

      
      <glyph glyph-name="unidb" unicode="&#xdb;" d="M355-16Q261-16 192.50 15.50Q124 47 87.50 105Q51 163 51 241Q51 273 59 315L136 700L372 700L296 319Q290 291 290 268Q290 221 314 198Q338 175 384 175Q436 175 465 208Q494 241 510 319L586 700L818 700L739 305Q707 146 611 65Q515-16 355-16M578 757L505 834L410 757L266 757L418 917L610 917L714 757L578 757Z"  horiz-adv-x="784" vert-adv-y="1000"  />

      
      <glyph glyph-name="uni0214" unicode="&#x0214;" d="M355-16Q261-16 192.50 15.50Q124 47 87.50 105Q51 163 51 241Q51 273 59 315L136 700L372 700L296 319Q290 291 290 268Q290 221 314 198Q338 175 384 175Q436 175 465 208Q494 241 510 319L586 700L818 700L739 305Q707 146 611 65Q515-16 355-16M238 917L423 917L443 757L303 757L238 917M472 917L657 917L677 757L537 757L472 917Z"  horiz-adv-x="784" vert-adv-y="1000"  />

      
      <glyph glyph-name="unidc" unicode="&#xdc;" d="M355-16Q261-16 192.50 15.50Q124 47 87.50 105Q51 163 51 241Q51 273 59 315L136 700L372 700L296 319Q290 291 290 268Q290 221 314 198Q338 175 384 175Q436 175 465 208Q494 241 510 319L586 700L818 700L739 305Q707 146 611 65Q515-16 355-16M388 749Q351 749 327.50 770.50Q304 792 304 828Q304 871 332.50 898.50Q361 926 401 926Q438 926 461.50 904Q485 882 485 846Q485 803 456.50 776Q428 749 388 749M610 749Q573 749 549.50 770.50Q526 792 526 828Q526 871 554.50 898.50Q583 926 623 926Q660 926 683.50 904Q707 882 707 846Q707 803 678.50 776Q650 749 610 749Z"  horiz-adv-x="784" vert-adv-y="1000"  />

      
      <glyph glyph-name="uni1EE4" unicode="&#x1EE4;" d="M355-16Q261-16 192.50 15.50Q124 47 87.50 105Q51 163 51 241Q51 273 59 315L136 700L372 700L296 319Q290 291 290 268Q290 221 314 198Q338 175 384 175Q436 175 465 208Q494 241 510 319L586 700L818 700L739 305Q707 146 611 65Q515-16 355-16M304-226Q267-226 243.50-203.50Q220-181 220-146Q220-105 249.50-77.50Q279-50 318-50Q354-50 378-72Q402-94 402-128Q402-173 374-199.50Q346-226 304-226Z"  horiz-adv-x="784" vert-adv-y="1000"  />

      
      <glyph glyph-name="unid9" unicode="&#xd9;" d="M355-16Q261-16 192.50 15.50Q124 47 87.50 105Q51 163 51 241Q51 273 59 315L136 700L372 700L296 319Q290 291 290 268Q290 221 314 198Q338 175 384 175Q436 175 465 208Q494 241 510 319L586 700L818 700L739 305Q707 146 611 65Q515-16 355-16M280 917L495 917L595 757L445 757L280 917Z"  horiz-adv-x="784" vert-adv-y="1000"  />

      
      <glyph glyph-name="uni1EE6" unicode="&#x1EE6;" d="M355-16Q261-16 192.50 15.50Q124 47 87.50 105Q51 163 51 241Q51 273 59 315L136 700L372 700L296 319Q290 291 290 268Q290 221 314 198Q338 175 384 175Q436 175 465 208Q494 241 510 319L586 700L818 700L739 305Q707 146 611 65Q515-16 355-16M479 812Q511 826 522.50 840.50Q534 855 534 872Q534 887 524.50 895.50Q515 904 498 904Q468 904 438 884L403 968Q459 1008 536 1008Q595 1008 629 979Q663 950 663 901Q663 801 538 747L479 812Z"  horiz-adv-x="784" vert-adv-y="1000"  />

      
      <glyph glyph-name="uni01AF" unicode="&#x01AF;" d="M355-16Q261-16 192.50 15.50Q124 47 87.50 105Q51 163 51 241Q51 273 59 315L136 700L372 700L296 319Q290 291 290 268Q290 221 314 198Q338 175 384 175Q436 175 465 208Q494 241 510 319L586 700L818 700L739 305Q707 146 611 65Q515-16 355-16M695 700L735 700Q757 700 773.50 717Q790 734 790 761Q790 795 770 818L898 863Q935 816 935 752Q935 662 877 612Q819 562 725 562L695 562L695 700Z"  horiz-adv-x="804" vert-adv-y="1000"  />

      
      <glyph glyph-name="uni1EE8" unicode="&#x1EE8;" d="M355-16Q261-16 192.50 15.50Q124 47 87.50 105Q51 163 51 241Q51 273 59 315L136 700L372 700L296 319Q290 291 290 268Q290 221 314 198Q338 175 384 175Q436 175 465 208Q494 241 510 319L586 700L818 700L739 305Q707 146 611 65Q515-16 355-16M695 700L735 700Q757 700 773.50 717Q790 734 790 761Q790 795 770 818L898 863Q935 816 935 752Q935 662 877 612Q819 562 725 562L695 562L695 700M532 917L753 917L538 757L382 757L532 917Z"  horiz-adv-x="804" vert-adv-y="1000"  />

      
      <glyph glyph-name="uni1EF0" unicode="&#x1EF0;" d="M355-16Q261-16 192.50 15.50Q124 47 87.50 105Q51 163 51 241Q51 273 59 315L136 700L372 700L296 319Q290 291 290 268Q290 221 314 198Q338 175 384 175Q436 175 465 208Q494 241 510 319L586 700L818 700L739 305Q707 146 611 65Q515-16 355-16M695 700L735 700Q757 700 773.50 717Q790 734 790 761Q790 795 770 818L898 863Q935 816 935 752Q935 662 877 612Q819 562 725 562L695 562L695 700M304-226Q267-226 243.50-203.50Q220-181 220-146Q220-105 249.50-77.50Q279-50 318-50Q354-50 378-72Q402-94 402-128Q402-173 374-199.50Q346-226 304-226Z"  horiz-adv-x="804" vert-adv-y="1000"  />

      
      <glyph glyph-name="uni1EEA" unicode="&#x1EEA;" d="M355-16Q261-16 192.50 15.50Q124 47 87.50 105Q51 163 51 241Q51 273 59 315L136 700L372 700L296 319Q290 291 290 268Q290 221 314 198Q338 175 384 175Q436 175 465 208Q494 241 510 319L586 700L818 700L739 305Q707 146 611 65Q515-16 355-16M695 700L735 700Q757 700 773.50 717Q790 734 790 761Q790 795 770 818L898 863Q935 816 935 752Q935 662 877 612Q819 562 725 562L695 562L695 700M280 917L495 917L595 757L445 757L280 917Z"  horiz-adv-x="804" vert-adv-y="1000"  />

      
      <glyph glyph-name="uni1EEC" unicode="&#x1EEC;" d="M355-16Q261-16 192.50 15.50Q124 47 87.50 105Q51 163 51 241Q51 273 59 315L136 700L372 700L296 319Q290 291 290 268Q290 221 314 198Q338 175 384 175Q436 175 465 208Q494 241 510 319L586 700L818 700L739 305Q707 146 611 65Q515-16 355-16M695 700L735 700Q757 700 773.50 717Q790 734 790 761Q790 795 770 818L898 863Q935 816 935 752Q935 662 877 612Q819 562 725 562L695 562L695 700M479 812Q511 826 522.50 840.50Q534 855 534 872Q534 887 524.50 895.50Q515 904 498 904Q468 904 438 884L403 968Q459 1008 536 1008Q595 1008 629 979Q663 950 663 901Q663 801 538 747L479 812Z"  horiz-adv-x="804" vert-adv-y="1000"  />

      
      <glyph glyph-name="uni1EEE" unicode="&#x1EEE;" d="M355-16Q261-16 192.50 15.50Q124 47 87.50 105Q51 163 51 241Q51 273 59 315L136 700L372 700L296 319Q290 291 290 268Q290 221 314 198Q338 175 384 175Q436 175 465 208Q494 241 510 319L586 700L818 700L739 305Q707 146 611 65Q515-16 355-16M695 700L735 700Q757 700 773.50 717Q790 734 790 761Q790 795 770 818L898 863Q935 816 935 752Q935 662 877 612Q819 562 725 562L695 562L695 700M579 747Q549 747 527.50 756.50Q506 766 481 784Q463 796 453.50 801Q444 806 433 806Q414 806 400.50 793Q387 780 382 757L275 757Q289 841 330 885.50Q371 930 433 930Q463 930 484.50 920.50Q506 911 532 893Q548 882 558.50 876.50Q569 871 580 871Q599 871 612 883.50Q625 896 630 917L737 917Q724 835 682.50 791Q641 747 579 747Z"  horiz-adv-x="804" vert-adv-y="1000"  />

      
      <glyph glyph-name="uni0170" unicode="&#x0170;" d="M355-16Q261-16 192.50 15.50Q124 47 87.50 105Q51 163 51 241Q51 273 59 315L136 700L372 700L296 319Q290 291 290 268Q290 221 314 198Q338 175 384 175Q436 175 465 208Q494 241 510 319L586 700L818 700L739 305Q707 146 611 65Q515-16 355-16M366 917L565 917L450 757L296 757L366 917M600 917L799 917L684 757L530 757L600 917Z"  horiz-adv-x="784" vert-adv-y="1000"  />

      
      <glyph glyph-name="uni0216" unicode="&#x0216;" d="M355-16Q261-16 192.50 15.50Q124 47 87.50 105Q51 163 51 241Q51 273 59 315L136 700L372 700L296 319Q290 291 290 268Q290 221 314 198Q338 175 384 175Q436 175 465 208Q494 241 510 319L586 700L818 700L739 305Q707 146 611 65Q515-16 355-16M281 757Q297 836 359 881.50Q421 927 514 927Q596 927 648 886Q700 845 700 776Q700 763 699 757L568 757Q569 785 550.50 801.50Q532 818 500 818Q468 818 447.50 801.50Q427 785 420 757L281 757Z"  horiz-adv-x="784" vert-adv-y="1000"  />

      
      <glyph glyph-name="uni016A" unicode="&#x016A;" d="M355-16Q261-16 192.50 15.50Q124 47 87.50 105Q51 163 51 241Q51 273 59 315L136 700L372 700L296 319Q290 291 290 268Q290 221 314 198Q338 175 384 175Q436 175 465 208Q494 241 510 319L586 700L818 700L739 305Q707 146 611 65Q515-16 355-16M308 896L728 896L704 778L284 778L308 896Z"  horiz-adv-x="784" vert-adv-y="1000"  />

      
      <glyph glyph-name="uni1E7A" unicode="&#x1E7A;" d="M355-16Q261-16 192.50 15.50Q124 47 87.50 105Q51 163 51 241Q51 273 59 315L136 700L372 700L296 319Q290 291 290 268Q290 221 314 198Q338 175 384 175Q436 175 465 208Q494 241 510 319L586 700L818 700L739 305Q707 146 611 65Q515-16 355-16M304 878L724 878L702 766L282 766L304 878M430 932Q394 932 372.50 952.50Q351 973 351 1007Q351 1048 378 1073.50Q405 1099 442 1099Q477 1099 499 1078Q521 1057 521 1023Q521 982 494 957Q467 932 430 932M642 932Q606 932 584.50 952.50Q563 973 563 1007Q563 1048 590 1073.50Q617 1099 654 1099Q689 1099 711 1078Q733 1057 733 1023Q733 982 706 957Q679 932 642 932Z"  horiz-adv-x="784" vert-adv-y="1000"  />

      
      <glyph glyph-name="uni0172" unicode="&#x0172;" d="M818 700L739 305Q687 46 465-5Q390-22 359-44.50Q328-67 328-97Q328-116 340.50-127Q353-138 374-138Q402-138 434-124L443-217Q395-240 335-240Q268-240 228.50-211Q189-182 189-132Q189-56 263-7Q162 13 106.50 78.50Q51 144 51 241Q51 273 59 315L136 700L372 700L296 319Q290 291 290 268Q290 221 314 198Q338 175 384 175Q436 175 465 208Q494 241 510 319L586 700L818 700Z"  horiz-adv-x="784" vert-adv-y="1000"  />

      
      <glyph glyph-name="uni016E" unicode="&#x016E;" d="M355-16Q261-16 192.50 15.50Q124 47 87.50 105Q51 163 51 241Q51 273 59 315L136 700L372 700L296 319Q290 291 290 268Q290 221 314 198Q338 175 384 175Q436 175 465 208Q494 241 510 319L586 700L818 700L739 305Q707 146 611 65Q515-16 355-16M514 743Q475 743 443 761Q411 779 392.50 809.50Q374 840 374 877Q374 914 392.50 944.50Q411 975 443 993Q475 1011 514 1011Q553 1011 585 993Q617 975 635.50 944.50Q654 914 654 877Q654 840 635.50 809.50Q617 779 585 761Q553 743 514 743M514 823Q537 823 552.50 838Q568 853 568 877Q568 901 552.50 916Q537 931 514 931Q491 931 475.50 916Q460 901 460 877Q460 853 475.50 838Q491 823 514 823Z"  horiz-adv-x="784" vert-adv-y="1000"  />

      
      <glyph glyph-name="uni0168" unicode="&#x0168;" d="M355-16Q261-16 192.50 15.50Q124 47 87.50 105Q51 163 51 241Q51 273 59 315L136 700L372 700L296 319Q290 291 290 268Q290 221 314 198Q338 175 384 175Q436 175 465 208Q494 241 510 319L586 700L818 700L739 305Q707 146 611 65Q515-16 355-16M579 747Q549 747 527.50 756.50Q506 766 481 784Q463 796 453.50 801Q444 806 433 806Q414 806 400.50 793Q387 780 382 757L275 757Q289 841 330 885.50Q371 930 433 930Q463 930 484.50 920.50Q506 911 532 893Q548 882 558.50 876.50Q569 871 580 871Q599 871 612 883.50Q625 896 630 917L737 917Q724 835 682.50 791Q641 747 579 747Z"  horiz-adv-x="784" vert-adv-y="1000"  />

      
      <glyph glyph-name="uni1E78" unicode="&#x1E78;" d="M355-16Q261-16 192.50 15.50Q124 47 87.50 105Q51 163 51 241Q51 273 59 315L136 700L372 700L296 319Q290 291 290 268Q290 221 314 198Q338 175 384 175Q436 175 465 208Q494 241 510 319L586 700L818 700L739 305Q707 146 611 65Q515-16 355-16M571 747Q543 747 522.50 755.50Q502 764 477 779Q462 788 453 792.50Q444 797 435 797Q417 797 405 785.50Q393 774 389 756L279 756Q290 827 330.50 866Q371 905 435 905Q463 905 483 897Q503 889 530 873Q545 864 554.50 859.50Q564 855 573 855Q592 855 604 866.50Q616 878 620 896L727 896Q717 826 677 786.50Q637 747 571 747M535 1070L754 1070L573 940L419 940L535 1070Z"  horiz-adv-x="784" vert-adv-y="1000"  />

      
      <glyph glyph-name="uni56" unicode="&#x56;" d="M890 700L454 0L222 0L66 700L308 700L395 292L648 700L890 700Z"  horiz-adv-x="786" vert-adv-y="1000"  />

      
      <glyph glyph-name="uni57" unicode="&#x57;" d="M1281 700L917 0L664 0L624 369L432 0L179 0L95 700L328 700L373 301L581 700L798 700L838 295L1049 700L1281 700Z"  horiz-adv-x="1206" vert-adv-y="1000"  />

      
      </font>
</defs>
</svg>
